ISO-10303-21;
HEADER;
FILE_DESCRIPTION (( 'STEP AP214' ),
    '1' );
FILE_NAME ('135AN.STEP',
    '2024-04-16T02:04:55',
    ( 'LENOVO' ),
    ( '' ),
    'SwSTEP 2.0',
    'SolidWorks 2021',
    '' );
FILE_SCHEMA (( 'AUTOMOTIVE_DESIGN' ));
ENDSEC;

DATA;
#1 = VECTOR ( 'NONE', #125, 1000.000000000000000 ) ;
#2 = LINE ( 'NONE', #233, #338 ) ;
#3 = CARTESIAN_POINT ( 'NONE',  ( 0.000000000000000000, -15.62000000000000099, 0.000000000000000000 ) ) ;
#4 = CARTESIAN_POINT ( 'NONE',  ( -0.4803842003735939725, 3.542505788067408901, -2.140881239423530591 ) ) ;
#5 = SURFACE_STYLE_FILL_AREA ( #850 ) ;
#6 =( NAMED_UNIT ( * ) SI_UNIT ( $, .STERADIAN. ) SOLID_ANGLE_UNIT ( ) );
#7 =( GEOMETRIC_REPRESENTATION_CONTEXT ( 3 ) GLOBAL_UNCERTAINTY_ASSIGNED_CONTEXT ( ( #23 ) ) GLOBAL_UNIT_ASSIGNED_CONTEXT ( ( #521, #293, #6 ) ) REPRESENTATION_CONTEXT ( 'NONE', 'WORKASPACE' ) );
#8 = LINE ( 'NONE', #718, #682 ) ;
#9 =( REPRESENTATION_RELATIONSHIP ('NONE','NONE', #16, #875 ) REPRESENTATION_RELATIONSHIP_WITH_TRANSFORMATION ( #548 )SHAPE_REPRESENTATION_RELATIONSHIP( ) );
#10 = CARTESIAN_POINT ( 'NONE',  ( -0.2300000000000000100, 0.000000000000000000, 0.2049999999999999878 ) ) ;
#11 = CARTESIAN_POINT ( 'NONE',  ( 0.7649527919663535735, 2.020576738971602726, -2.063945304257428504 ) ) ;
#12 = EDGE_CURVE ( 'NONE', #588, #461, #151, .T. ) ;
#13 = AXIS2_PLACEMENT_3D ( 'NONE', #433, #799, #56 ) ;
#14 = APPLICATION_CONTEXT ( 'automotive_design' ) ;
#15 = CARTESIAN_POINT ( 'NONE',  ( -1.000000000000000000, 2.665000000000000036, -1.969722204358700157 ) ) ;
#16 = SHAPE_REPRESENTATION ( '135AN', ( #580, #201 ), #1008 ) ;
#17 = ADVANCED_FACE ( 'NONE', ( #483 ), #658, .F. ) ;
#18 = MECHANICAL_DESIGN_GEOMETRIC_PRESENTATION_REPRESENTATION (  '', ( #780 ), #375 ) ;
#19 = CARTESIAN_POINT ( 'NONE',  ( 0.2300000000000000100, 0.000000000000000000, 0.2049999999999999878 ) ) ;
#20 = DIRECTION ( 'NONE',  ( 0.000000000000000000, 1.000000000000000000, 0.000000000000000000 ) ) ;
#21 = ORIENTED_EDGE ( 'NONE', *, *, #423, .T. ) ;
#22 = VERTEX_POINT ( 'NONE', #754 ) ;
#23 = UNCERTAINTY_MEASURE_WITH_UNIT (LENGTH_MEASURE( 1.000000000000000082E-05 ), #521, 'distance_accuracy_value', 'NONE');
#24 = EDGE_CURVE ( 'NONE', #812, #364, #41, .T. ) ;
#25 = CARTESIAN_POINT ( 'NONE',  ( -0.7671425168834347108, 2.017967253385387849, -2.063845551042980286 ) ) ;
#26 = ORIENTED_EDGE ( 'NONE', *, *, #536, .T. ) ;
#27 = DIRECTION ( 'NONE',  ( 0.000000000000000000, -1.000000000000000000, 0.000000000000000000 ) ) ;
#28 =( NAMED_UNIT ( * ) SI_UNIT ( $, .STERADIAN. ) SOLID_ANGLE_UNIT ( ) );
#29 = ADVANCED_FACE ( 'NONE', ( #822 ), #590, .T. ) ;
#30 = DIRECTION ( 'NONE',  ( 0.000000000000000000, 0.000000000000000000, 1.000000000000000000 ) ) ;
#31 = AXIS2_PLACEMENT_3D ( 'NONE', #227, #844, #917 ) ;
#32 = EDGE_LOOP ( 'NONE', ( #215, #487, #381, #906 ) ) ;
#33 = CARTESIAN_POINT ( 'NONE',  ( 0.9528159751424182256, 2.360975424194660555, -1.991030084388940580 ) ) ;
#34 = VERTEX_POINT ( 'NONE', #107 ) ;
#35 = ADVANCED_FACE ( 'NONE', ( #488 ), #420, .T. ) ;
#36 = EDGE_LOOP ( 'NONE', ( #134, #391, #39, #532 ) ) ;
#37 = CARTESIAN_POINT ( 'NONE',  ( 0.6346285832563937079, 3.438039229078797554, -2.103695282927338539 ) ) ;
#38 = EDGE_CURVE ( 'NONE', #798, #461, #156, .T. ) ;
#39 = ORIENTED_EDGE ( 'NONE', *, *, #512, .T. ) ;
#40 = EDGE_LOOP ( 'NONE', ( #883, #494, #140, #61 ) ) ;
#41 = B_SPLINE_CURVE_WITH_KNOTS ( 'NONE', 3,
 ( #804, #98, #489, #286, #788, #890, #473, #429, #178, #170, #796, #506, #261, #345, #966, #37, #979, #414, #277, #989, #103, #45, #740, #188, #267, #339, #343, #410, #60, #482, #117, #568 ),
 .UNSPECIFIED., .F., .F.,
 ( 4, 2, 2, 1, 1, 2, 2, 2, 2, 2, 2, 2, 2, 1, 1, 2, 2, 4 ),
 ( 0.000000000000000000, 0.1250000000000052458, 0.1875000000000079659, 0.2187500000000094369, 0.2343750000000103806, 0.2421875000000108247, 0.2500000000000112688, 0.3750000000000097145, 0.4375000000000090483, 0.4687500000000086597, 0.5000000000000083267, 0.6250000000000059952, 0.6875000000000047740, 0.7187500000000041078, 0.7343750000000032196, 0.7421875000000028866, 0.7500000000000024425, 1.000000000000000000 ),
 .UNSPECIFIED. ) ;
#42 = CARTESIAN_POINT ( 'NONE',  ( 0.4802156231955170829, 1.787401450064772579, -2.140915816755369683 ) ) ;
#43 = VERTEX_POINT ( 'NONE', #52 ) ;
#44 = ORIENTED_EDGE ( 'NONE', *, *, #690, .T. ) ;
#45 = CARTESIAN_POINT ( 'NONE',  ( 0.8678279324321791499, 3.162922293384781813, -2.026700957088170885 ) ) ;
#46 = ORIENTED_EDGE ( 'NONE', *, *, #775, .F. ) ;
#47 = VERTEX_POINT ( 'NONE', #111 ) ;
#48 = CARTESIAN_POINT ( 'NONE',  ( 1.039999999999999813, -15.62000000000000099, 0.2049999999999999878 ) ) ;
#49 = DIRECTION ( 'NONE',  ( 0.000000000000000000, 0.000000000000000000, -1.000000000000000000 ) ) ;
#50 = ORIENTED_EDGE ( 'NONE', *, *, #551, .T. ) ;
#51 = ORIENTED_EDGE ( 'NONE', *, *, #180, .T. ) ;
#52 = CARTESIAN_POINT ( 'NONE',  ( 1.000000000000000000, 2.665000000000000036, -1.850000000000000089 ) ) ;
#53 = EDGE_CURVE ( 'NONE', #131, #879, #834, .T. ) ;
#54 = AXIS2_PLACEMENT_3D ( 'NONE', #983, #746, #355 ) ;
#55 = ORIENTED_EDGE ( 'NONE', *, *, #394, .T. ) ;
#56 = DIRECTION ( 'NONE',  ( 0.000000000000000000, 0.000000000000000000, -1.000000000000000000 ) ) ;
#57 = CARTESIAN_POINT ( 'NONE',  ( 1.039999999999999813, -15.62000000000000099, 0.2049999999999999878 ) ) ;
#58 = VERTEX_POINT ( 'NONE', #499 ) ;
#59 = VERTEX_POINT ( 'NONE', #19 ) ;
#60 = CARTESIAN_POINT ( 'NONE',  ( 0.9213791002240053762, 3.053689703468964733, -2.004416630140619215 ) ) ;
#61 = ORIENTED_EDGE ( 'NONE', *, *, #733, .T. ) ;
#62 = ORIENTED_EDGE ( 'NONE', *, *, #53, .T. ) ;
#63 = CARTESIAN_POINT ( 'NONE',  ( 1.500000000000000000, -15.62000000000000099, 0.2049999999999999878 ) ) ;
#64 = DIRECTION ( 'NONE',  ( 0.000000000000000000, 0.000000000000000000, -1.000000000000000000 ) ) ;
#65 = EDGE_LOOP ( 'NONE', ( #370, #572, #198, #50 ) ) ;
#66 = ORIENTED_EDGE ( 'NONE', *, *, #137, .T. ) ;
#67 = AXIS2_PLACEMENT_3D ( 'NONE', #281, #369, #426 ) ;
#68 = CARTESIAN_POINT ( 'NONE',  ( -0.7374416693814959123, 3.340731220414651759, -2.072967507954238453 ) ) ;
#69 = ORIENTED_EDGE ( 'NONE', *, *, #671, .T. ) ;
#70 = CARTESIAN_POINT ( 'NONE',  ( -0.3049941516935363861, 1.712496111825103862, -2.170378719575535964 ) ) ;
#71 = PLANE ( 'NONE',  #820 ) ;
#72 = AXIS2_PLACEMENT_3D ( 'NONE', #940, #632, #181 ) ;
#73 = CARTESIAN_POINT ( 'NONE',  ( -0.9674205351630996708, 2.920455357385690398, -1.984672226056600319 ) ) ;
#74 = CARTESIAN_POINT ( 'NONE',  ( -0.4793502842573257317, 1.784970175828566319, -2.141572646162668736 ) ) ;
#75 =( LENGTH_UNIT ( ) NAMED_UNIT ( * ) SI_UNIT ( .MILLI., .METRE. ) );
#76 = CARTESIAN_POINT ( 'NONE',  ( 2.326828918379969947E-17, 5.330000000000000071, 0.1900000000000000022 ) ) ;
#77 = DIRECTION ( 'NONE',  ( 1.000000000000000000, 0.000000000000000000, 0.000000000000000000 ) ) ;
#78 = PRODUCT_CONTEXT ( 'NONE', #14, 'mechanical' ) ;
#79 = PRODUCT_DEFINITION_FORMATION_WITH_SPECIFIED_SOURCE ( 'ANY', '', #786, .NOT_KNOWN. ) ;
#80 = AXIS2_PLACEMENT_3D ( 'NONE', #444, #784, #716 ) ;
#81 = DIRECTION ( 'NONE',  ( 0.000000000000000000, 0.000000000000000000, 1.000000000000000000 ) ) ;
#82 = ADVANCED_FACE ( 'NONE', ( #785 ), #561, .T. ) ;
#83 = CARTESIAN_POINT ( 'NONE',  ( -0.4046436339737413124, 3.579510658680757462, -2.155341596564140261 ) ) ;
#84 = PLANE ( 'NONE',  #411 ) ;
#85 = EDGE_CURVE ( 'NONE', #358, #812, #116, .T. ) ;
#86 = UNCERTAINTY_MEASURE_WITH_UNIT (LENGTH_MEASURE( 1.000000000000000082E-05 ), #97, 'distance_accuracy_value', 'NONE');
#87 = CARTESIAN_POINT ( 'NONE',  ( -0.9206898607495993536, 2.274694161811831705, -2.005597175148317035 ) ) ;
#88 = DIRECTION ( 'NONE',  ( 0.000000000000000000, -1.000000000000000000, 0.000000000000000000 ) ) ;
#89 = PLANE ( 'NONE',  #667 ) ;
#90 = ADVANCED_FACE ( 'NONE', ( #504 ), #976, .T. ) ;
#91 = CARTESIAN_POINT ( 'NONE',  ( 1.500000000000000000, -15.62000000000000099, 0.2049999999999999878 ) ) ;
#92 = CARTESIAN_POINT ( 'NONE',  ( 0.2300000000000000100, -15.62000000000000099, 0.2049999999999999878 ) ) ;
#93 = CARTESIAN_POINT ( 'NONE',  ( 3.263683719727694617E-16, 2.665000000000000036, -1.850000000000000089 ) ) ;
#94 = EDGE_CURVE ( 'NONE', #219, #894, #838, .T. ) ;
#95 = AXIS2_PLACEMENT_3D ( 'NONE', #956, #554, #105 ) ;
#96 = CARTESIAN_POINT ( 'NONE',  ( 3.263683719727694617E-16, 2.665000000000000036, -1.850000000000000089 ) ) ;
#97 =( LENGTH_UNIT ( ) NAMED_UNIT ( * ) SI_UNIT ( .MILLI., .METRE. ) );
#98 = CARTESIAN_POINT ( 'NONE',  ( 0.06281044668675365983, 3.664999999999999147, -2.190000000000140279 ) ) ;
#99 = ADVANCED_FACE ( 'NONE', ( #845 ), #401, .T. ) ;
#100 = DIRECTION ( 'NONE',  ( 0.000000000000000000, 0.000000000000000000, 1.000000000000000000 ) ) ;
#101 = DIRECTION ( 'NONE',  ( 0.000000000000000000, -1.000000000000000000, 0.000000000000000000 ) ) ;
#102 = CARTESIAN_POINT ( 'NONE',  ( 0.9447954311777702063, 2.336541727108572442, -1.994492614893854210 ) ) ;
#103 = CARTESIAN_POINT ( 'NONE',  ( 0.8166949798651776948, 3.245703910869642161, -2.046331611594447430 ) ) ;
#104 = PRESENTATION_LAYER_ASSIGNMENT (  '', '', ( #450 ) ) ;
#105 = DIRECTION ( 'NONE',  ( 0.000000000000000000, 0.000000000000000000, 1.000000000000000000 ) ) ;
#106 = CARTESIAN_POINT ( 'NONE',  ( 0.3960186511782783358, 1.746752572287367800, -2.156815360737144083 ) ) ;
#107 = CARTESIAN_POINT ( 'NONE',  ( 1.039999999999999813, -15.62000000000000099, 0.2049999999999999878 ) ) ;
#108 = EDGE_CURVE ( 'NONE', #351, #202, #505, .T. ) ;
#109 = CARTESIAN_POINT ( 'NONE',  ( -2.371154781957514501, 5.330000000000000071, 0.3950000000000000178 ) ) ;
#110 = CARTESIAN_POINT ( 'NONE',  ( -0.2300000000000000100, -15.62000000000000099, 0.2049999999999999878 ) ) ;
#111 = CARTESIAN_POINT ( 'NONE',  ( 1.039999999999999813, 0.000000000000000000, -0.2049999999999999878 ) ) ;
#112 = PRODUCT_DEFINITION ( 'UNKNOWN', '', #470, #497 ) ;
#113 = AXIS2_PLACEMENT_3D ( 'NONE', #340, #100, #552 ) ;
#114 = CARTESIAN_POINT ( 'NONE',  ( 1.500000000000000000, -15.62000000000000099, 0.2049999999999999878 ) ) ;
#115 = DIRECTION ( 'NONE',  ( 0.000000000000000000, 0.000000000000000000, 1.000000000000000000 ) ) ;
#116 = LINE ( 'NONE', #493, #176 ) ;
#117 = CARTESIAN_POINT ( 'NONE',  ( 1.000000000000000666, 2.788252556257635018, -1.969722204358700157 ) ) ;
#118 = EDGE_CURVE ( 'NONE', #909, #368, #166, .T. ) ;
#119 = DIRECTION ( 'NONE',  ( 0.000000000000000000, -1.000000000000000000, 0.000000000000000000 ) ) ;
#120 = CARTESIAN_POINT ( 'NONE',  ( 1.500000000000000000, 0.000000000000000000, -0.2049999999999999878 ) ) ;
#121 = CARTESIAN_POINT ( 'NONE',  ( 0.2575345332322193648, 1.688910776127195534, -2.179551393494066236 ) ) ;
#122 = SURFACE_SIDE_STYLE ('',( #249 ) ) ;
#123 = DIRECTION ( 'NONE',  ( 0.000000000000000000, 0.000000000000000000, -1.000000000000000000 ) ) ;
#124 = EDGE_CURVE ( 'NONE', #577, #358, #173, .T. ) ;
#125 = DIRECTION ( 'NONE',  ( 0.000000000000000000, 0.000000000000000000, -1.000000000000000000 ) ) ;
#126 = CARTESIAN_POINT ( 'NONE',  ( -0.5892913426753487727, 1.854466287007957348, -2.116191108453670644 ) ) ;
#127 = ORIENTED_EDGE ( 'NONE', *, *, #846, .T. ) ;
#128 = DIRECTION ( 'NONE',  ( 1.000000000000000000, 0.000000000000000000, 0.000000000000000000 ) ) ;
#129 = ORIENTED_EDGE ( 'NONE', *, *, #617, .T. ) ;
#130 = VERTEX_POINT ( 'NONE', #964 ) ;
#131 = VERTEX_POINT ( 'NONE', #164 ) ;
#132 = CARTESIAN_POINT ( 'NONE',  ( -0.9292451177289253739, 3.034489696300481487, -2.001101676985020728 ) ) ;
#133 = DIRECTION ( 'NONE',  ( 0.000000000000000000, 0.000000000000000000, 1.000000000000000000 ) ) ;
#134 = ORIENTED_EDGE ( 'NONE', *, *, #209, .F. ) ;
#135 = APPLICATION_CONTEXT ( 'automotive_design' ) ;
#136 = ORIENTED_EDGE ( 'NONE', *, *, #38, .T. ) ;
#137 = EDGE_CURVE ( 'NONE', #894, #583, #500, .T. ) ;
#138 = ORIENTED_EDGE ( 'NONE', *, *, #24, .F. ) ;
#139 = CARTESIAN_POINT ( 'NONE',  ( -1.500000000000000000, 0.000000000000000000, 0.2049999999999999878 ) ) ;
#140 = ORIENTED_EDGE ( 'NONE', *, *, #685, .T. ) ;
#141 =( LENGTH_UNIT ( ) NAMED_UNIT ( * ) SI_UNIT ( .MILLI., .METRE. ) );
#142 = DIRECTION ( 'NONE',  ( 0.000000000000000000, -1.000000000000000000, 0.000000000000000000 ) ) ;
#143 = ORIENTED_EDGE ( 'NONE', *, *, #326, .F. ) ;
#144 = B_SPLINE_CURVE_WITH_KNOTS ( 'NONE', 3,
 ( #442, #296, #679, #750, #806, #70, #816, #826, #892, #287, #903, #914, #74, #126, #376, #25, #944, #513, #399, #210, #220, #440, #372, #87, #765, #446, #294, #15 ),
 .UNSPECIFIED., .F., .F.,
 ( 4, 2, 2, 1, 1, 2, 2, 2, 2, 2, 2, 1, 1, 2, 2, 4 ),
 ( 0.000000000000000000, 0.1249999999999975298, 0.1874999999999962808, 0.2187499999999955869, 0.2343749999999952538, 0.2421874999999950318, 0.2499999999999947820, 0.3749999999999938938, 0.4999999999999931166, 0.6249999999999925615, 0.6874999999999923395, 0.7187499999999916733, 0.7343749999999917843, 0.7421874999999918954, 0.7499999999999918954, 1.000000000000000000 ),
 .UNSPECIFIED. ) ;
#145 = ORIENTED_EDGE ( 'NONE', *, *, #12, .T. ) ;
#146 = ORIENTED_EDGE ( 'NONE', *, *, #961, .T. ) ;
#147 = DIRECTION ( 'NONE',  ( 0.000000000000000000, -1.000000000000000000, 0.000000000000000000 ) ) ;
#148 = EDGE_LOOP ( 'NONE', ( #256, #920, #192, #247, #384 ) ) ;
#149 = DIRECTION ( 'NONE',  ( -1.000000000000000000, 0.000000000000000000, 2.356961244533704927E-16 ) ) ;
#150 = DIRECTION ( 'NONE',  ( 0.000000000000000000, 0.000000000000000000, 1.000000000000000000 ) ) ;
#151 = LINE ( 'NONE', #861, #828 ) ;
#152 = APPLICATION_CONTEXT ( 'automotive_design' ) ;
#153 = ORIENTED_EDGE ( 'NONE', *, *, #406, .F. ) ;
#154 = ORIENTED_EDGE ( 'NONE', *, *, #895, .T. ) ;
#155 = CARTESIAN_POINT ( 'NONE',  ( 1.039999999999999813, 0.000000000000000000, 0.2049999999999999878 ) ) ;
#156 = LINE ( 'NONE', #677, #496 ) ;
#157 = DIRECTION ( 'NONE',  ( 0.000000000000000000, 1.000000000000000000, 0.000000000000000000 ) ) ;
#158 = VERTEX_POINT ( 'NONE', #484 ) ;
#159 = CARTESIAN_POINT ( 'NONE',  ( 0.000000000000000000, 0.000000000000000000, 0.000000000000000000 ) ) ;
#160 = ORIENTED_EDGE ( 'NONE', *, *, #783, .F. ) ;
#161 = ORIENTED_EDGE ( 'NONE', *, *, #169, .F. ) ;
#162 =( NAMED_UNIT ( * ) SI_UNIT ( $, .STERADIAN. ) SOLID_ANGLE_UNIT ( ) );
#163 = VECTOR ( 'NONE', #424, 1000.000000000000000 ) ;
#164 = CARTESIAN_POINT ( 'NONE',  ( -2.281673065447709980, 0.000000000000000000, 1.430000000000000160 ) ) ;
#165 = CARTESIAN_POINT ( 'NONE',  ( 2.371154781957514501, 0.000000000000000000, 0.3950000000000000178 ) ) ;
#166 = LINE ( 'NONE', #777, #171 ) ;
#167 = EDGE_CURVE ( 'NONE', #378, #909, #503, .T. ) ;
#168 = VECTOR ( 'NONE', #341, 1000.000000000000000 ) ;
#169 = EDGE_CURVE ( 'NONE', #583, #577, #924, .T. ) ;
#170 = CARTESIAN_POINT ( 'NONE',  ( 0.3780214237252831899, 3.590806918056629105, -2.159789767351073309 ) ) ;
#171 = VECTOR ( 'NONE', #790, 1000.000000000000000 ) ;
#172 =( NAMED_UNIT ( * ) PLANE_ANGLE_UNIT ( ) SI_UNIT ( $, .RADIAN. ) );
#173 = CIRCLE ( 'NONE', #95, 2.380000000000000338 ) ;
#174 = CARTESIAN_POINT ( 'NONE',  ( 2.281673065447709980, 5.330000000000000071, 1.430000000000000160 ) ) ;
#175 = CARTESIAN_POINT ( 'NONE',  ( 0.9237874332931381716, 2.282085874838854167, -2.003403346221469317 ) ) ;
#176 = VECTOR ( 'NONE', #27, 1000.000000000000000 ) ;
#177 = PRESENTATION_LAYER_ASSIGNMENT (  '', '', ( #809 ) ) ;
#178 = CARTESIAN_POINT ( 'NONE',  ( 0.3700119513722325837, 3.594037029487263890, -2.161061777146823459 ) ) ;
#179 = DIRECTION ( 'NONE',  ( 0.000000000000000000, 1.000000000000000000, 0.000000000000000000 ) ) ;
#180 = EDGE_CURVE ( 'NONE', #586, #368, #259, .T. ) ;
#181 = DIRECTION ( 'NONE',  ( -0.08613445378151206311, 0.000000000000000000, 0.9962835218308895291 ) ) ;
#182 = MECHANICAL_DESIGN_GEOMETRIC_PRESENTATION_REPRESENTATION (  '', ( #450 ), #292 ) ;
#183 = CARTESIAN_POINT ( 'NONE',  ( -1.500000000000000000, -15.62000000000000099, -0.2049999999999999878 ) ) ;
#184 = DIRECTION ( 'NONE',  ( -1.000000000000000000, 0.000000000000000000, 2.356961244533704927E-16 ) ) ;
#185 = CARTESIAN_POINT ( 'NONE',  ( -2.281673065447709980, 0.000000000000000000, 1.430000000000000160 ) ) ;
#186 = EDGE_CURVE ( 'NONE', #34, #862, #232, .T. ) ;
#187 = DIRECTION ( 'NONE',  ( 0.000000000000000000, 0.000000000000000000, -1.000000000000000000 ) ) ;
#188 = CARTESIAN_POINT ( 'NONE',  ( 0.8997228217611813461, 3.101661520529846783, -2.013583872018659182 ) ) ;
#189 = AXIS2_PLACEMENT_3D ( 'NONE', #1009, #922, #327 ) ;
#190 = CARTESIAN_POINT ( 'NONE',  ( 1.039999999999999813, -15.62000000000000099, 0.2049999999999999878 ) ) ;
#191 = PLANE ( 'NONE',  #867 ) ;
#192 = ORIENTED_EDGE ( 'NONE', *, *, #53, .F. ) ;
#193 = EDGE_CURVE ( 'NONE', #226, #58, #948, .T. ) ;
#194 = EDGE_LOOP ( 'NONE', ( #540, #471, #817, #468 ) ) ;
#195 = DIRECTION ( 'NONE',  ( 0.000000000000000000, 0.000000000000000000, 1.000000000000000000 ) ) ;
#196 = ORIENTED_EDGE ( 'NONE', *, *, #523, .T. ) ;
#197 = PLANE ( 'NONE',  #67 ) ;
#198 = ORIENTED_EDGE ( 'NONE', *, *, #118, .T. ) ;
#199 = CLOSED_SHELL ( 'NONE', ( #657, #837, #386, #218, #934, #474, #770, #17, #225, #462 ) ) ;
#200 = SURFACE_STYLE_USAGE ( .BOTH. , #531 ) ;
#201 = AXIS2_PLACEMENT_3D ( 'NONE', #159, #537, #128 ) ;
#202 = VERTEX_POINT ( 'NONE', #584 ) ;
#203 = CARTESIAN_POINT ( 'NONE',  ( 0.000000000000000000, 0.000000000000000000, 0.000000000000000000 ) ) ;
#204 = CARTESIAN_POINT ( 'NONE',  ( -1.500000000000000000, -15.62000000000000099, 0.2049999999999999878 ) ) ;
#205 = ORIENTED_EDGE ( 'NONE', *, *, #789, .T. ) ;
#206 =( NAMED_UNIT ( * ) SI_UNIT ( $, .STERADIAN. ) SOLID_ANGLE_UNIT ( ) );
#207 = ORIENTED_EDGE ( 'NONE', *, *, #186, .T. ) ;
#208 = ORIENTED_EDGE ( 'NONE', *, *, #437, .F. ) ;
#209 = EDGE_CURVE ( 'NONE', #202, #251, #265, .T. ) ;
#210 = CARTESIAN_POINT ( 'NONE',  ( -0.8975404750381321684, 2.223852417326973363, -2.015227142440925157 ) ) ;
#211 = VERTEX_POINT ( 'NONE', #782 ) ;
#212 = CARTESIAN_POINT ( 'NONE',  ( -0.7649101029710405619, 3.309472988073258737, -2.063958900538698238 ) ) ;
#213 = AXIS2_PLACEMENT_3D ( 'NONE', #642, #416, #574 ) ;
#214 = DIRECTION ( 'NONE',  ( 0.000000000000000000, 0.000000000000000000, 1.000000000000000000 ) ) ;
#215 = ORIENTED_EDGE ( 'NONE', *, *, #775, .T. ) ;
#216 =( LENGTH_UNIT ( ) NAMED_UNIT ( * ) SI_UNIT ( .MILLI., .METRE. ) );
#217 = ORIENTED_EDGE ( 'NONE', *, *, #749, .T. ) ;
#218 = ADVANCED_FACE ( 'NONE', ( #239 ), #412, .F. ) ;
#219 = VERTEX_POINT ( 'NONE', #109 ) ;
#220 = CARTESIAN_POINT ( 'NONE',  ( -0.9061197914656896613, 2.241657686569909380, -2.011689726156578484 ) ) ;
#221 = ITEM_DEFINED_TRANSFORMATION ( 'NONE', 'NONE', #31,  #113 ) ;
#222 = ORIENTED_EDGE ( 'NONE', *, *, #895, .F. ) ;
#223 = CARTESIAN_POINT ( 'NONE',  ( -0.9999999999999997780, 2.726755649875866272, -1.969722204358699713 ) ) ;
#224 = DIRECTION ( 'NONE',  ( 0.000000000000000000, 1.000000000000000000, 0.000000000000000000 ) ) ;
#225 = ADVANCED_FACE ( 'NONE', ( #971 ), #980, .F. ) ;
#226 = VERTEX_POINT ( 'NONE', #92 ) ;
#227 = CARTESIAN_POINT ( 'NONE',  ( 0.000000000000000000, 0.000000000000000000, 0.3800000000000000044 ) ) ;
#228 = ORIENTED_EDGE ( 'NONE', *, *, #380, .F. ) ;
#229 = FACE_OUTER_BOUND ( 'NONE', #32, .T. ) ;
#230 = SHAPE_DEFINITION_REPRESENTATION ( #969, #843 ) ;
#231 = EDGE_LOOP ( 'NONE', ( #238, #723, #805, #556, #797, #888, #138 ) ) ;
#232 = LINE ( 'NONE', #48, #271 ) ;
#233 = CARTESIAN_POINT ( 'NONE',  ( 1.000000000000000000, 2.665000000000000036, -1.850000000000000089 ) ) ;
#234 = ADVANCED_FACE ( 'NONE', ( #907 ), #407, .T. ) ;
#235 = ORIENTED_EDGE ( 'NONE', *, *, #180, .F. ) ;
#236 = SURFACE_STYLE_FILL_AREA ( #605 ) ;
#237 = CARTESIAN_POINT ( 'NONE',  ( 0.6483333835843760884, 1.899156686919360570, -2.100812908320669692 ) ) ;
#238 = ORIENTED_EDGE ( 'NONE', *, *, #85, .F. ) ;
#239 = FACE_OUTER_BOUND ( 'NONE', #866, .T. ) ;
#240 = APPLICATION_PROTOCOL_DEFINITION ( 'draft international standard', 'automotive_design', 1998, #242 ) ;
#241 = AXIS2_PLACEMENT_3D ( 'NONE', #283, #427, #683 ) ;
#242 = APPLICATION_CONTEXT ( 'automotive_design' ) ;
#243 = ORIENTED_EDGE ( 'NONE', *, *, #512, .F. ) ;
#244 = FACE_OUTER_BOUND ( 'NONE', #65, .T. ) ;
#245 = ORIENTED_EDGE ( 'NONE', *, *, #818, .F. ) ;
#246 = DIRECTION ( 'NONE',  ( 0.000000000000000000, 1.000000000000000000, 0.000000000000000000 ) ) ;
#247 = ORIENTED_EDGE ( 'NONE', *, *, #591, .F. ) ;
#248 = DIRECTION ( 'NONE',  ( -2.356961244533704927E-16, 0.000000000000000000, -1.000000000000000000 ) ) ;
#249 = SURFACE_STYLE_FILL_AREA ( #699 ) ;
#250 = CARTESIAN_POINT ( 'NONE',  ( 0.5890391495862417059, 1.854287203148143215, -2.116256754133947648 ) ) ;
#251 = VERTEX_POINT ( 'NONE', #863 ) ;
#252 = ORIENTED_EDGE ( 'NONE', *, *, #169, .T. ) ;
#253 = COLOUR_RGB ( '',0.2509803921568627416, 0.2509803921568627416, 0.2509803921568627416 ) ;
#254 = VERTEX_POINT ( 'NONE', #511 ) ;
#255 = CARTESIAN_POINT ( 'NONE',  ( 3.263683719727694617E-16, 2.665000000000000036, -1.850000000000000089 ) ) ;
#256 = ORIENTED_EDGE ( 'NONE', *, *, #800, .F. ) ;
#257 = DIRECTION ( 'NONE',  ( 1.000000000000000000, 0.000000000000000000, 0.000000000000000000 ) ) ;
#258 = SURFACE_STYLE_USAGE ( .BOTH. , #449 ) ;
#259 = LINE ( 'NONE', #741, #905 ) ;
#260 = PRESENTATION_LAYER_ASSIGNMENT (  '', '', ( #361 ) ) ;
#261 = CARTESIAN_POINT ( 'NONE',  ( 0.4800066845937667193, 3.544675179834983592, -2.141434582058979519 ) ) ;
#262 = CARTESIAN_POINT ( 'NONE',  ( -1.039999999999999813, 0.000000000000000000, 0.2049999999999999878 ) ) ;
#263 = DIRECTION ( 'NONE',  ( 0.000000000000000000, 1.000000000000000000, 0.000000000000000000 ) ) ;
#264 = CARTESIAN_POINT ( 'NONE',  ( 0.9071551577296980140, 2.242246520633975670, -2.010398271376946600 ) ) ;
#265 = LINE ( 'NONE', #859, #937 ) ;
#266 = FACE_OUTER_BOUND ( 'NONE', #443, .T. ) ;
#267 = CARTESIAN_POINT ( 'NONE',  ( 0.9077514206350056902, 3.084788004710468101, -2.010195799182269205 ) ) ;
#268 = VECTOR ( 'NONE', #77, 1000.000000000000000 ) ;
#269 = LINE ( 'NONE', #441, #268 ) ;
#270 = CARTESIAN_POINT ( 'NONE',  ( 2.326780998856434883E-17, 1.665000000000000036, -2.189999999999999947 ) ) ;
#271 = VECTOR ( 'NONE', #720, 1000.000000000000000 ) ;
#272 = LINE ( 'NONE', #947, #282 ) ;
#273 = CARTESIAN_POINT ( 'NONE',  ( 1.500000000000000000, -15.62000000000000099, -0.2049999999999999878 ) ) ;
#274 = AXIS2_PLACEMENT_3D ( 'NONE', #869, #880, #973 ) ;
#275 = VECTOR ( 'NONE', #729, 1000.000000000000000 ) ;
#276 = LINE ( 'NONE', #453, #1002 ) ;
#277 = CARTESIAN_POINT ( 'NONE',  ( 0.6923704783300961285, 3.386884700478603349, -2.087123871253872220 ) ) ;
#278 = CIRCLE ( 'NONE', #350, 1.000000000000000000 ) ;
#279 = VECTOR ( 'NONE', #184, 1000.000000000000000 ) ;
#280 = VECTOR ( 'NONE', #81, 1000.000000000000000 ) ;
#281 = CARTESIAN_POINT ( 'NONE',  ( 0.000000000000000000, 0.000000000000000000, 0.000000000000000000 ) ) ;
#282 = VECTOR ( 'NONE', #20, 1000.000000000000000 ) ;
#283 = CARTESIAN_POINT ( 'NONE',  ( 2.326828918379969947E-17, 0.000000000000000000, 0.1900000000000000022 ) ) ;
#284 = SHAPE_REPRESENTATION_RELATIONSHIP ( 'NONE' , 'NONE' ,  #843, #701 ) ;
#285 = VECTOR ( 'NONE', #224, 1000.000000000000000 ) ;
#286 = CARTESIAN_POINT ( 'NONE',  ( 0.2245024627856090360, 3.640032998496635308, -2.179495661041686461 ) ) ;
#287 = CARTESIAN_POINT ( 'NONE',  ( -0.3773101419977620274, 1.738903012901378942, -2.159903817265600878 ) ) ;
#288 = B_SPLINE_CURVE_WITH_KNOTS ( 'NONE', 3,
 ( #527, #460, #849, #860, #965, #33, #102, #713, #644, #865, #175, #264, #397, #342, #972, #413, #11, #739, #778, #237, #250, #479, #42, #330, #857, #323, #106, #402, #957, #121, #575, #270 ),
 .UNSPECIFIED., .F., .F.,
 ( 4, 2, 2, 1, 1, 2, 2, 2, 2, 2, 2, 2, 2, 1, 1, 2, 2, 4 ),
 ( 0.000000000000000000, 0.1249999999999992228, 0.1874999999999983624, 0.2187499999999976130, 0.2343749999999969469, 0.2421874999999965861, 0.2499999999999962252, 0.3749999999999978906, 0.4374999999999982792, 0.4687499999999987788, 0.4999999999999993339, 0.6250000000000016653, 0.6875000000000028866, 0.7187500000000036637, 0.7343750000000038858, 0.7421875000000036637, 0.7500000000000035527, 1.000000000000000000 ),
 .UNSPECIFIED. ) ;
#289 = DIRECTION ( 'NONE',  ( 1.000000000000000000, 0.000000000000000000, 0.000000000000000000 ) ) ;
#290 = CARTESIAN_POINT ( 'NONE',  ( -0.2300000000000000100, -15.62000000000000099, -0.2049999999999999878 ) ) ;
#291 = DIRECTION ( 'NONE',  ( 1.000000000000000000, 0.000000000000000000, 0.000000000000000000 ) ) ;
#292 =( GEOMETRIC_REPRESENTATION_CONTEXT ( 3 ) GLOBAL_UNCERTAINTY_ASSIGNED_CONTEXT ( ( #320 ) ) GLOBAL_UNIT_ASSIGNED_CONTEXT ( ( #141, #514, #390 ) ) REPRESENTATION_CONTEXT ( 'NONE', 'WORKASPACE' ) );
#293 =( NAMED_UNIT ( * ) PLANE_ANGLE_UNIT ( ) SI_UNIT ( $, .RADIAN. ) );
#294 = CARTESIAN_POINT ( 'NONE',  ( -1.000000000000000222, 2.545897887262997372, -1.969722204358700601 ) ) ;
#295 = CARTESIAN_POINT ( 'NONE',  ( -0.8844724594973509824, 3.136090899671481136, -2.020322655115139199 ) ) ;
#296 = CARTESIAN_POINT ( 'NONE',  ( -0.06268546676477280977, 1.665000000000000258, -2.189999999999999947 ) ) ;
#297 = FACE_OUTER_BOUND ( 'NONE', #557, .T. ) ;
#298 =( LENGTH_UNIT ( ) NAMED_UNIT ( * ) SI_UNIT ( .MILLI., .METRE. ) );
#299 = LINE ( 'NONE', #139, #625 ) ;
#300 = LINE ( 'NONE', #308, #643 ) ;
#301 =( LENGTH_UNIT ( ) NAMED_UNIT ( * ) SI_UNIT ( .MILLI., .METRE. ) );
#302 = FACE_OUTER_BOUND ( 'NONE', #359, .T. ) ;
#303 = UNCERTAINTY_MEASURE_WITH_UNIT (LENGTH_MEASURE( 1.000000000000000082E-05 ), #75, 'distance_accuracy_value', 'NONE');
#304 = ADVANCED_FACE ( 'NONE', ( #589 ), #994, .T. ) ;
#305 = PRESENTATION_STYLE_ASSIGNMENT (( #515 ) ) ;
#306 = MECHANICAL_DESIGN_GEOMETRIC_PRESENTATION_REPRESENTATION (  '', ( #725 ), #467 ) ;
#307 = CARTESIAN_POINT ( 'NONE',  ( -0.4247898808599989140, 3.570450644005825236, -2.151764720736794700 ) ) ;
#308 = CARTESIAN_POINT ( 'NONE',  ( -2.281673065447709980, 5.330000000000000071, 1.430000000000000160 ) ) ;
#309 = LINE ( 'NONE', #585, #656 ) ;
#310 = CIRCLE ( 'NONE', #189, 2.380000000000000338 ) ;
#311 = LINE ( 'NONE', #801, #615 ) ;
#312 = LINE ( 'NONE', #379, #629 ) ;
#313 = CYLINDRICAL_SURFACE ( 'NONE', #978, 1.000000000000000000 ) ;
#314 =( NAMED_UNIT ( * ) SI_UNIT ( $, .STERADIAN. ) SOLID_ANGLE_UNIT ( ) );
#315 = FACE_OUTER_BOUND ( 'NONE', #913, .T. ) ;
#316 = CARTESIAN_POINT ( 'NONE',  ( -1.000000000000000000, 2.665000000000000036, -1.969722204358700157 ) ) ;
#317 = DIRECTION ( 'NONE',  ( 0.000000000000000000, 1.000000000000000000, 0.000000000000000000 ) ) ;
#318 = ADVANCED_FACE ( 'NONE', ( #266 ), #689, .T. ) ;
#319 = FACE_OUTER_BOUND ( 'NONE', #927, .T. ) ;
#320 = UNCERTAINTY_MEASURE_WITH_UNIT (LENGTH_MEASURE( 1.000000000000000082E-05 ), #141, 'distance_accuracy_value', 'NONE');
#321 = CARTESIAN_POINT ( 'NONE',  ( -2.281673065447709980, 5.330000000000000071, 1.430000000000000160 ) ) ;
#322 = LINE ( 'NONE', #422, #647 ) ;
#323 = CARTESIAN_POINT ( 'NONE',  ( 0.4044239967919396328, 1.750392146455992171, -2.155379474570231935 ) ) ;
#324 = VECTOR ( 'NONE', #763, 1000.000000000000000 ) ;
#325 = LINE ( 'NONE', #501, #653 ) ;
#326 = EDGE_CURVE ( 'NONE', #832, #59, #942, .T. ) ;
#327 = DIRECTION ( 'NONE',  ( 0.000000000000000000, 0.000000000000000000, 1.000000000000000000 ) ) ;
#328 = CYLINDRICAL_SURFACE ( 'NONE', #771, 2.380000000000000338 ) ;
#329 = CARTESIAN_POINT ( 'NONE',  ( 0.2300000000000000100, -15.62000000000000099, 0.2049999999999999878 ) ) ;
#330 = CARTESIAN_POINT ( 'NONE',  ( 0.4427664889601785614, 1.768253435380851224, -2.148346281778572120 ) ) ;
#331 = LINE ( 'NONE', #621, #1 ) ;
#332 = VECTOR ( 'NONE', #776, 1000.000000000000000 ) ;
#333 = DIRECTION ( 'NONE',  ( -1.000000000000000000, 0.000000000000000000, 0.000000000000000000 ) ) ;
#334 = CIRCLE ( 'NONE', #598, 2.380000000000000338 ) ;
#335 = DIRECTION ( 'NONE',  ( 0.9962835218308896401, 0.000000000000000000, -0.08613445378151207699 ) ) ;
#336 = CARTESIAN_POINT ( 'NONE',  ( 2.326780998856434883E-17, 1.665000000000000036, -2.189999999999999947 ) ) ;
#337 = LINE ( 'NONE', #434, #332 ) ;
#338 = VECTOR ( 'NONE', #640, 1000.000000000000000 ) ;
#339 = CARTESIAN_POINT ( 'NONE',  ( 0.9158095829572451274, 3.066677375688293239, -2.006774904316379171 ) ) ;
#340 = CARTESIAN_POINT ( 'NONE',  ( 0.000000000000000000, 0.000000000000000000, 0.000000000000000000 ) ) ;
#341 = DIRECTION ( 'NONE',  ( 1.000000000000000000, 0.000000000000000000, -1.425535746865771721E-16 ) ) ;
#342 = CARTESIAN_POINT ( 'NONE',  ( 0.8333235787446078291, 2.111258828535624410, -2.039951991042699753 ) ) ;
#343 = CARTESIAN_POINT ( 'NONE',  ( 0.9190013619536370193, 3.059263218554648667, -2.005422775825975723 ) ) ;
#344 = CARTESIAN_POINT ( 'NONE',  ( -1.500000000000000000, -15.62000000000000099, -0.2049999999999999878 ) ) ;
#345 = CARTESIAN_POINT ( 'NONE',  ( 0.5624764531789238076, 3.492453291393152082, -2.122370635942775863 ) ) ;
#346 = CARTESIAN_POINT ( 'NONE',  ( 0.2300000000000000100, -15.62000000000000099, 0.2049999999999999878 ) ) ;
#347 = ORIENTED_EDGE ( 'NONE', *, *, #94, .T. ) ;
#348 = PRODUCT_DEFINITION ( 'UNKNOWN', '', #952, #745 ) ;
#349 = DIRECTION ( 'NONE',  ( -1.000000000000000000, 0.000000000000000000, 2.356961244533704927E-16 ) ) ;
#350 = AXIS2_PLACEMENT_3D ( 'NONE', #96, #30, #962 ) ;
#351 = VERTEX_POINT ( 'NONE', #508 ) ;
#352 = DIRECTION ( 'NONE',  ( 0.000000000000000000, 0.000000000000000000, -1.000000000000000000 ) ) ;
#353 = CARTESIAN_POINT ( 'NONE',  ( -1.039999999999999813, -15.62000000000000099, 0.2049999999999999878 ) ) ;
#354 = ORIENTED_EDGE ( 'NONE', *, *, #430, .T. ) ;
#355 = DIRECTION ( 'NONE',  ( 1.000000000000000000, 0.000000000000000000, 0.000000000000000000 ) ) ;
#356 = EDGE_CURVE ( 'NONE', #879, #480, #563, .T. ) ;
#357 = CARTESIAN_POINT ( 'NONE',  ( -1.500000000000000000, -15.62000000000000099, -0.2049999999999999878 ) ) ;
#358 = VERTEX_POINT ( 'NONE', #608 ) ;
#359 = EDGE_LOOP ( 'NONE', ( #62, #569, #445, #217 ) ) ;
#360 = DIRECTION ( 'NONE',  ( 1.000000000000000000, 0.000000000000000000, 0.000000000000000000 ) ) ;
#361 = STYLED_ITEM ( 'NONE', ( #1005 ), #901 ) ;
#362 = ORIENTED_EDGE ( 'NONE', *, *, #490, .F. ) ;
#363 = DIRECTION ( 'NONE',  ( -2.356961244533704927E-16, 0.000000000000000000, -1.000000000000000000 ) ) ;
#364 = VERTEX_POINT ( 'NONE', #893 ) ;
#365 = ORIENTED_EDGE ( 'NONE', *, *, #118, .F. ) ;
#366 = CARTESIAN_POINT ( 'NONE',  ( -0.5067883912096516896, 3.527681889051956343, -2.135237257691097845 ) ) ;
#367 = DIRECTION ( 'NONE',  ( -0.000000000000000000, 1.000000000000000000, 0.000000000000000000 ) ) ;
#368 = VERTEX_POINT ( 'NONE', #120 ) ;
#369 = DIRECTION ( 'NONE',  ( 0.000000000000000000, -1.000000000000000000, 0.000000000000000000 ) ) ;
#370 = ORIENTED_EDGE ( 'NONE', *, *, #943, .T. ) ;
#371 = EDGE_LOOP ( 'NONE', ( #385, #245, #889, #864 ) ) ;
#372 = CARTESIAN_POINT ( 'NONE',  ( -0.9184028552362031306, 2.269342746174324077, -2.006555576480455017 ) ) ;
#373 = ORIENTED_EDGE ( 'NONE', *, *, #645, .T. ) ;
#374 = FILL_AREA_STYLE_COLOUR ( '', #582 ) ;
#375 =( GEOMETRIC_REPRESENTATION_CONTEXT ( 3 ) GLOBAL_UNCERTAINTY_ASSIGNED_CONTEXT ( ( #86 ) ) GLOBAL_UNIT_ASSIGNED_CONTEXT ( ( #97, #852, #28 ) ) REPRESENTATION_CONTEXT ( 'NONE', 'WORKASPACE' ) );
#376 = CARTESIAN_POINT ( 'NONE',  ( -0.6475227670818078929, 1.898271050166607132, -2.101077125344747554 ) ) ;
#377 = DIRECTION ( 'NONE',  ( 0.000000000000000000, 0.000000000000000000, 1.000000000000000000 ) ) ;
#378 = VERTEX_POINT ( 'NONE', #918 ) ;
#379 = CARTESIAN_POINT ( 'NONE',  ( -0.2300000000000000100, -15.62000000000000099, -0.2049999999999999878 ) ) ;
#380 = EDGE_CURVE ( 'NONE', #211, #43, #570, .T. ) ;
#381 = ORIENTED_EDGE ( 'NONE', *, *, #877, .T. ) ;
#382 = CARTESIAN_POINT ( 'NONE',  ( -0.3906978171914004538, 3.585523935133587248, -2.157712798828076206 ) ) ;
#383 = CARTESIAN_POINT ( 'NONE',  ( -0.2300000000000000100, 0.000000000000000000, -0.2049999999999999878 ) ) ;
#384 = ORIENTED_EDGE ( 'NONE', *, *, #690, .F. ) ;
#385 = ORIENTED_EDGE ( 'NONE', *, *, #1012, .F. ) ;
#386 = ADVANCED_FACE ( 'NONE', ( #573 ), #597, .T. ) ;
#387 = ORIENTED_EDGE ( 'NONE', *, *, #831, .T. ) ;
#388 = CARTESIAN_POINT ( 'NONE',  ( 2.281673065447709980, 5.330000000000000071, 1.430000000000000160 ) ) ;
#389 = CLOSED_SHELL ( 'NONE', ( #522, #529, #90, #304, #393, #409 ) ) ;
#390 =( NAMED_UNIT ( * ) SI_UNIT ( $, .STERADIAN. ) SOLID_ANGLE_UNIT ( ) );
#391 = ORIENTED_EDGE ( 'NONE', *, *, #108, .F. ) ;
#392 = ORIENTED_EDGE ( 'NONE', *, *, #124, .T. ) ;
#393 = ADVANCED_FACE ( 'NONE', ( #945 ), #71, .T. ) ;
#394 = EDGE_CURVE ( 'NONE', #862, #586, #609, .T. ) ;
#395 = CARTESIAN_POINT ( 'NONE',  ( 2.326828918379969947E-17, 0.000000000000000000, -2.189999999999999947 ) ) ;
#396 = PLANE ( 'NONE',  #419 ) ;
#397 = CARTESIAN_POINT ( 'NONE',  ( 0.8846466401116859224, 2.194223822177737038, -2.020255498407083294 ) ) ;
#398 = APPLICATION_PROTOCOL_DEFINITION ( 'draft international standard', 'automotive_design', 1998, #152 ) ;
#399 = CARTESIAN_POINT ( 'NONE',  ( -0.8787852762003156570, 2.186986595948126499, -2.022831744839960866 ) ) ;
#400 = ADVANCED_FACE ( 'NONE', ( #244 ), #197, .F. ) ;
#401 = PLANE ( 'NONE',  #492 ) ;
#402 = CARTESIAN_POINT ( 'NONE',  ( 0.3904682574035862053, 1.744378660608969733, -2.157750990997705287 ) ) ;
#403 = EDGE_CURVE ( 'NONE', #705, #226, #269, .T. ) ;
#404 = ORIENTED_EDGE ( 'NONE', *, *, #94, .F. ) ;
#405 = FILL_AREA_STYLE_COLOUR ( '', #987 ) ;
#406 = EDGE_CURVE ( 'NONE', #881, #812, #659, .T. ) ;
#407 = PLANE ( 'NONE',  #438 ) ;
#408 = DIRECTION ( 'NONE',  ( 0.000000000000000000, 0.000000000000000000, 1.000000000000000000 ) ) ;
#409 = ADVANCED_FACE ( 'NONE', ( #229 ), #711, .F. ) ;
#410 = CARTESIAN_POINT ( 'NONE',  ( 0.9210730739489357832, 3.054398743223407209, -2.004546683345543201 ) ) ;
#411 = AXIS2_PLACEMENT_3D ( 'NONE', #992, #367, #624 ) ;
#412 = PLANE ( 'NONE',  #693 ) ;
#413 = CARTESIAN_POINT ( 'NONE',  ( 0.7777127540164059383, 2.036083669718292466, -2.059639502965989521 ) ) ;
#414 = CARTESIAN_POINT ( 'NONE',  ( 0.6786698498376672051, 3.399706293871419760, -2.091200282914056796 ) ) ;
#415 = AXIS2_PLACEMENT_3D ( 'NONE', #203, #88, #526 ) ;
#416 = DIRECTION ( 'NONE',  ( -1.000000000000000000, 0.000000000000000000, 0.000000000000000000 ) ) ;
#417 = MANIFOLD_SOLID_BREP ( 'NONE', #389 ) ;
#418 = CARTESIAN_POINT ( 'NONE',  ( -1.039999999999999813, -15.62000000000000099, -0.2049999999999999878 ) ) ;
#419 = AXIS2_PLACEMENT_3D ( 'NONE', #533, #195, #291 ) ;
#420 = PLANE ( 'NONE',  #767 ) ;
#421 = CARTESIAN_POINT ( 'NONE',  ( -2.371154781957514501, 5.330000000000000071, 0.3950000000000000178 ) ) ;
#422 = CARTESIAN_POINT ( 'NONE',  ( 1.039999999999999813, 0.000000000000000000, -0.2049999999999999878 ) ) ;
#423 = EDGE_CURVE ( 'NONE', #58, #22, #567, .T. ) ;
#424 = DIRECTION ( 'NONE',  ( 1.000000000000000000, 0.000000000000000000, -1.425535746865771721E-16 ) ) ;
#425 = CARTESIAN_POINT ( 'NONE',  ( -0.2300000000000000100, 0.000000000000000000, 0.2049999999999999878 ) ) ;
#426 = DIRECTION ( 'NONE',  ( 0.000000000000000000, 0.000000000000000000, -1.000000000000000000 ) ) ;
#427 = DIRECTION ( 'NONE',  ( 0.000000000000000000, 1.000000000000000000, 0.000000000000000000 ) ) ;
#428 = AXIS2_PLACEMENT_3D ( 'NONE', #3, #772, #704 ) ;
#429 = CARTESIAN_POINT ( 'NONE',  ( 0.3579839713973498871, 3.598797276477247120, -2.162939017409908793 ) ) ;
#430 = EDGE_CURVE ( 'NONE', #586, #158, #604, .T. ) ;
#431 = CARTESIAN_POINT ( 'NONE',  ( 3.263683719727694617E-16, 2.665000000000000036, -1.850000000000000089 ) ) ;
#432 = CARTESIAN_POINT ( 'NONE',  ( 2.326828918379969947E-17, 0.000000000000000000, 0.1900000000000000022 ) ) ;
#433 = CARTESIAN_POINT ( 'NONE',  ( 2.326828918379969947E-17, 5.330000000000000071, 0.1900000000000000022 ) ) ;
#434 = CARTESIAN_POINT ( 'NONE',  ( -2.371154781957514501, 5.330000000000000071, 0.3950000000000000178 ) ) ;
#435 = CARTESIAN_POINT ( 'NONE',  ( -0.7776534665228205245, 3.293988810224339314, -2.059658820342097574 ) ) ;
#436 = DIRECTION ( 'NONE',  ( 0.000000000000000000, -1.000000000000000000, 0.000000000000000000 ) ) ;
#437 = EDGE_CURVE ( 'NONE', #254, #807, #587, .T. ) ;
#438 = AXIS2_PLACEMENT_3D ( 'NONE', #183, #248, #458 ) ;
#439 = ADVANCED_FACE ( 'NONE', ( #600 ), #396, .T. ) ;
#440 = CARTESIAN_POINT ( 'NONE',  ( -0.9148920820892163519, 2.261224779685982345, -2.008026289093059802 ) ) ;
#441 = CARTESIAN_POINT ( 'NONE',  ( -0.2300000000000000100, -15.62000000000000099, 0.2049999999999999878 ) ) ;
#442 = CARTESIAN_POINT ( 'NONE',  ( 2.326780998856434883E-17, 1.665000000000000036, -2.189999999999999947 ) ) ;
#443 = EDGE_LOOP ( 'NONE', ( #365, #362, #55, #51 ) ) ;
#444 = CARTESIAN_POINT ( 'NONE',  ( 0.000000000000000000, 0.000000000000000000, 0.000000000000000000 ) ) ;
#445 = ORIENTED_EDGE ( 'NONE', *, *, #137, .F. ) ;
#446 = CARTESIAN_POINT ( 'NONE',  ( -0.9784991773370120827, 2.413223241325398227, -1.981372097715990988 ) ) ;
#447 = MANIFOLD_SOLID_BREP ( 'NONE', #199 ) ;
#448 = CARTESIAN_POINT ( 'NONE',  ( -0.2576918919928782303, 3.641061435191363493, -2.179538630931437737 ) ) ;
#449 = SURFACE_SIDE_STYLE ('',( #236 ) ) ;
#450 = STYLED_ITEM ( 'NONE', ( #921 ), #417 ) ;
#451 = PRESENTATION_LAYER_ASSIGNMENT (  '', '', ( #780 ) ) ;
#452 = CARTESIAN_POINT ( 'NONE',  ( -0.6484013563117656531, 3.430781759549389243, -2.100792854452775416 ) ) ;
#453 = CARTESIAN_POINT ( 'NONE',  ( -1.500000000000000000, -15.62000000000000099, 0.2049999999999999878 ) ) ;
#454 = APPLICATION_PROTOCOL_DEFINITION ( 'draft international standard', 'automotive_design', 1998, #14 ) ;
#455 = EDGE_LOOP ( 'NONE', ( #46, #535, #898, #703 ) ) ;
#456 = EDGE_CURVE ( 'NONE', #588, #351, #620, .T. ) ;
#457 = CARTESIAN_POINT ( 'NONE',  ( 2.281673065447709980, 0.000000000000000000, 1.430000000000000160 ) ) ;
#458 = DIRECTION ( 'NONE',  ( -1.000000000000000000, 0.000000000000000000, 2.356961244533704927E-16 ) ) ;
#459 = VERTEX_POINT ( 'NONE', #336 ) ;
#460 = CARTESIAN_POINT ( 'NONE',  ( 1.000000000000000666, 2.603309487295998537, -1.969722204358700157 ) ) ;
#461 = VERTEX_POINT ( 'NONE', #545 ) ;
#462 = ADVANCED_FACE ( 'NONE', ( #998 ), #469, .F. ) ;
#463 = ORIENTED_EDGE ( 'NONE', *, *, #475, .F. ) ;
#464 = AXIS2_PLACEMENT_3D ( 'NONE', #764, #929, #935 ) ;
#465 = ORIENTED_EDGE ( 'NONE', *, *, #456, .T. ) ;
#466 = FILL_AREA_STYLE ('',( #405 ) ) ;
#467 =( GEOMETRIC_REPRESENTATION_CONTEXT ( 3 ) GLOBAL_UNCERTAINTY_ASSIGNED_CONTEXT ( ( #676 ) ) GLOBAL_UNIT_ASSIGNED_CONTEXT ( ( #298, #516, #1007 ) ) REPRESENTATION_CONTEXT ( 'NONE', 'WORKASPACE' ) );
#468 = ORIENTED_EDGE ( 'NONE', *, *, #186, .F. ) ;
#469 = PLANE ( 'NONE',  #709 ) ;
#470 = PRODUCT_DEFINITION_FORMATION_WITH_SPECIFIED_SOURCE ( 'ANY', '', #566, .NOT_KNOWN. ) ;
#471 = ORIENTED_EDGE ( 'NONE', *, *, #430, .F. ) ;
#472 = ORIENTED_EDGE ( 'NONE', *, *, #1001, .F. ) ;
#473 = CARTESIAN_POINT ( 'NONE',  ( 0.3298312263373567865, 3.609312083203109811, -2.167103823676638008 ) ) ;
#474 = ADVANCED_FACE ( 'NONE', ( #297 ), #708, .F. ) ;
#475 = EDGE_CURVE ( 'NONE', #705, #832, #272, .T. ) ;
#476 = ORIENTED_EDGE ( 'NONE', *, *, #490, .T. ) ;
#477 = DIRECTION ( 'NONE',  ( 0.000000000000000000, 0.000000000000000000, -1.000000000000000000 ) ) ;
#478 = EDGE_LOOP ( 'NONE', ( #392, #592, #347, #66, #252 ) ) ;
#479 = CARTESIAN_POINT ( 'NONE',  ( 0.5066365945038810992, 1.802228332181293968, -2.135270103517108886 ) ) ;
#480 = VERTEX_POINT ( 'NONE', #165 ) ;
#481 = ORIENTED_EDGE ( 'NONE', *, *, #193, .T. ) ;
#482 = CARTESIAN_POINT ( 'NONE',  ( 0.9769006249632746774, 2.920453023531388137, -1.981050996450754553 ) ) ;
#483 = FACE_OUTER_BOUND ( 'NONE', #148, .T. ) ;
#484 = CARTESIAN_POINT ( 'NONE',  ( 1.039999999999999813, -15.62000000000000099, -0.2049999999999999878 ) ) ;
#485 = ORIENTED_EDGE ( 'NONE', *, *, #167, .F. ) ;
#486 = DIRECTION ( 'NONE',  ( -1.000000000000000000, 0.000000000000000000, 2.356961244533704927E-16 ) ) ;
#487 = ORIENTED_EDGE ( 'NONE', *, *, #326, .T. ) ;
#488 = FACE_OUTER_BOUND ( 'NONE', #194, .T. ) ;
#489 = CARTESIAN_POINT ( 'NONE',  ( 0.1272701612310798147, 3.659064948520362570, -2.187373915260526935 ) ) ;
#490 = EDGE_CURVE ( 'NONE', #862, #909, #638, .T. ) ;
#491 = ORIENTED_EDGE ( 'NONE', *, *, #714, .F. ) ;
#492 = AXIS2_PLACEMENT_3D ( 'NONE', #673, #662, #263 ) ;
#493 = CARTESIAN_POINT ( 'NONE',  ( 2.326828918379969947E-17, 5.330000000000000071, -2.189999999999999947 ) ) ;
#494 = ORIENTED_EDGE ( 'NONE', *, *, #671, .F. ) ;
#495 = PLANE ( 'NONE',  #825 ) ;
#496 = VECTOR ( 'NONE', #744, 1000.000000000000000 ) ;
#497 = PRODUCT_DEFINITION_CONTEXT ( 'detailed design', #853, 'design' ) ;
#498 = ORIENTED_EDGE ( 'NONE', *, *, #108, .T. ) ;
#499 = CARTESIAN_POINT ( 'NONE',  ( 0.2300000000000000100, -15.62000000000000099, -0.2049999999999999878 ) ) ;
#500 = LINE ( 'NONE', #737, #168 ) ;
#501 = CARTESIAN_POINT ( 'NONE',  ( 0.2300000000000000100, -15.62000000000000099, 0.2049999999999999878 ) ) ;
#502 = CARTESIAN_POINT ( 'NONE',  ( -0.2300000000000000100, -15.62000000000000099, 0.2049999999999999878 ) ) ;
#503 = LINE ( 'NONE', #730, #841 ) ;
#504 = FACE_OUTER_BOUND ( 'NONE', #802, .T. ) ;
#505 = LINE ( 'NONE', #787, #836 ) ;
#506 = CARTESIAN_POINT ( 'NONE',  ( 0.4294160310642537448, 3.569331342208164060, -2.151355148217847457 ) ) ;
#507 = PRODUCT_DEFINITION_SHAPE ( 'NONE', 'NONE',  #1014 ) ;
#508 = CARTESIAN_POINT ( 'NONE',  ( -1.500000000000000000, -15.62000000000000099, 0.2049999999999999878 ) ) ;
#509 = FILL_AREA_STYLE_COLOUR ( '', #253 ) ;
#510 = CARTESIAN_POINT ( 'NONE',  ( -1.039999999999999813, -15.62000000000000099, 0.2049999999999999878 ) ) ;
#511 = CARTESIAN_POINT ( 'NONE',  ( 0.2300000000000000100, 0.000000000000000000, -0.2049999999999999878 ) ) ;
#512 = EDGE_CURVE ( 'NONE', #351, #130, #276, .T. ) ;
#513 = CARTESIAN_POINT ( 'NONE',  ( -0.8641544869976062193, 2.160725962593597504, -2.028607839546443525 ) ) ;
#514 =( NAMED_UNIT ( * ) PLANE_ANGLE_UNIT ( ) SI_UNIT ( $, .RADIAN. ) );
#515 = SURFACE_STYLE_USAGE ( .BOTH. , #688 ) ;
#516 =( NAMED_UNIT ( * ) PLANE_ANGLE_UNIT ( ) SI_UNIT ( $, .RADIAN. ) );
#517 = PRODUCT_RELATED_PRODUCT_CATEGORY ( 'part', '', ( #872 ) ) ;
#518 =( GEOMETRIC_REPRESENTATION_CONTEXT ( 3 ) GLOBAL_UNCERTAINTY_ASSIGNED_CONTEXT ( ( #870 ) ) GLOBAL_UNIT_ASSIGNED_CONTEXT ( ( #650, #172, #162 ) ) REPRESENTATION_CONTEXT ( 'NONE', 'WORKASPACE' ) );
#519 = DIRECTION ( 'NONE',  ( 0.000000000000000000, 0.000000000000000000, -1.000000000000000000 ) ) ;
#520 = CARTESIAN_POINT ( 'NONE',  ( -0.9527040345621994311, 2.969376420566679720, -1.991079378212843087 ) ) ;
#521 =( LENGTH_UNIT ( ) NAMED_UNIT ( * ) SI_UNIT ( .MILLI., .METRE. ) );
#522 = ADVANCED_FACE ( 'NONE', ( #977 ), #89, .T. ) ;
#523 = EDGE_CURVE ( 'NONE', #364, #459, #288, .T. ) ;
#524 =( NAMED_UNIT ( * ) PLANE_ANGLE_UNIT ( ) SI_UNIT ( $, .RADIAN. ) );
#525 = CARTESIAN_POINT ( 'NONE',  ( -1.000000000000000000, 2.665000000000000036, -1.969722204358700157 ) ) ;
#526 = DIRECTION ( 'NONE',  ( 0.000000000000000000, 0.000000000000000000, -1.000000000000000000 ) ) ;
#527 = CARTESIAN_POINT ( 'NONE',  ( 1.000000000000000000, 2.665000000000000036, -1.969722204358700157 ) ) ;
#528 = CLOSED_SHELL ( 'NONE', ( #82, #618, #318, #439, #35, #400 ) ) ;
#529 = ADVANCED_FACE ( 'NONE', ( #986 ), #191, .T. ) ;
#530 = EDGE_LOOP ( 'NONE', ( #472, #891, #542, #829 ) ) ;
#531 = SURFACE_SIDE_STYLE ('',( #5 ) ) ;
#532 = ORIENTED_EDGE ( 'NONE', *, *, #818, .T. ) ;
#533 = CARTESIAN_POINT ( 'NONE',  ( 1.039999999999999813, -15.62000000000000099, 0.2049999999999999878 ) ) ;
#534 = CARTESIAN_POINT ( 'NONE',  ( -1.500000000000000000, -15.62000000000000099, 0.2049999999999999878 ) ) ;
#535 = ORIENTED_EDGE ( 'NONE', *, *, #916, .F. ) ;
#536 = EDGE_CURVE ( 'NONE', #565, #588, #641, .T. ) ;
#537 = DIRECTION ( 'NONE',  ( 0.000000000000000000, 0.000000000000000000, 1.000000000000000000 ) ) ;
#538 = EDGE_LOOP ( 'NONE', ( #821, #871, #465, #498 ) ) ;
#539 = SHAPE_DEFINITION_REPRESENTATION ( #1011, #16 ) ;
#540 = ORIENTED_EDGE ( 'NONE', *, *, #685, .F. ) ;
#541 =( NAMED_UNIT ( * ) PLANE_ANGLE_UNIT ( ) SI_UNIT ( $, .RADIAN. ) );
#542 = ORIENTED_EDGE ( 'NONE', *, *, #193, .F. ) ;
#543 = AXIS2_PLACEMENT_3D ( 'NONE', #700, #119, #606 ) ;
#544 = DIRECTION ( 'NONE',  ( 1.000000000000000000, 0.000000000000000000, 0.000000000000000000 ) ) ;
#545 = CARTESIAN_POINT ( 'NONE',  ( -1.500000000000000000, 0.000000000000000000, -0.2049999999999999878 ) ) ;
#546 = ORIENTED_EDGE ( 'NONE', *, *, #1013, .T. ) ;
#547 = CARTESIAN_POINT ( 'NONE',  ( 0.000000000000000000, 0.000000000000000000, 0.000000000000000000 ) ) ;
#548 = ITEM_DEFINED_TRANSFORMATION ( 'NONE', 'NONE', #201,  #80 ) ;
#549 = ORIENTED_EDGE ( 'NONE', *, *, #209, .T. ) ;
#550 = ORIENTED_EDGE ( 'NONE', *, *, #831, .F. ) ;
#551 = EDGE_CURVE ( 'NONE', #368, #47, #322, .T. ) ;
#552 = DIRECTION ( 'NONE',  ( 1.000000000000000000, 0.000000000000000000, 0.000000000000000000 ) ) ;
#553 = ORIENTED_EDGE ( 'NONE', *, *, #591, .T. ) ;
#554 = DIRECTION ( 'NONE',  ( 0.000000000000000000, 1.000000000000000000, 0.000000000000000000 ) ) ;
#555 = DIRECTION ( 'NONE',  ( 1.000000000000000000, 0.000000000000000000, 0.000000000000000000 ) ) ;
#556 = ORIENTED_EDGE ( 'NONE', *, *, #800, .T. ) ;
#557 = EDGE_LOOP ( 'NONE', ( #827, #576, #161, #738 ) ) ;
#558 = EDGE_LOOP ( 'NONE', ( #228, #919 ) ) ;
#559 = DIRECTION ( 'NONE',  ( 0.000000000000000000, 0.000000000000000000, -1.000000000000000000 ) ) ;
#560 = EDGE_LOOP ( 'NONE', ( #485, #726, #207, #476 ) ) ;
#561 = PLANE ( 'NONE',  #213 ) ;
#562 = ORIENTED_EDGE ( 'NONE', *, *, #877, .F. ) ;
#563 = LINE ( 'NONE', #603, #578 ) ;
#564 = CONTEXT_DEPENDENT_SHAPE_REPRESENTATION ( #769, #793 ) ;
#565 = VERTEX_POINT ( 'NONE', #675 ) ;
#566 = PRODUCT ( 'KSC1008YBU_KSC1008YBU^KSC1008YBU(2)_135AN', 'KSC1008YBU_KSC1008YBU^KSC1008YBU(2)_135AN', '', ( #78 ) ) ;
#567 = LINE ( 'NONE', #926, #931 ) ;
#568 = CARTESIAN_POINT ( 'NONE',  ( 1.000000000000000000, 2.665000000000000036, -1.969722204358700157 ) ) ;
#569 = ORIENTED_EDGE ( 'NONE', *, *, #985, .F. ) ;
#570 = CIRCLE ( 'NONE', #54, 1.000000000000000000 ) ;
#571 = CONTEXT_DEPENDENT_SHAPE_REPRESENTATION ( #9, #507 ) ;
#572 = ORIENTED_EDGE ( 'NONE', *, *, #167, .T. ) ;
#573 = FACE_OUTER_BOUND ( 'NONE', #231, .T. ) ;
#574 = DIRECTION ( 'NONE',  ( 0.000000000000000000, 0.000000000000000000, 1.000000000000000000 ) ) ;
#575 = CARTESIAN_POINT ( 'NONE',  ( 0.1253611038391998500, 1.665000000000000036, -2.190000000000000391 ) ) ;
#576 = ORIENTED_EDGE ( 'NONE', *, *, #854, .F. ) ;
#577 = VERTEX_POINT ( 'NONE', #596 ) ;
#578 = VECTOR ( 'NONE', #759, 1000.000000000000000 ) ;
#579 = DIRECTION ( 'NONE',  ( 0.000000000000000000, -1.000000000000000000, 0.000000000000000000 ) ) ;
#580 = AXIS2_PLACEMENT_3D ( 'NONE', #547, #377, #646 ) ;
#581 = ORIENTED_EDGE ( 'NONE', *, *, #24, .T. ) ;
#582 = COLOUR_RGB ( '',0.7921568627450980005, 0.8196078431372548767, 0.9333333333333333481 ) ;
#583 = VERTEX_POINT ( 'NONE', #747 ) ;
#584 = CARTESIAN_POINT ( 'NONE',  ( -1.500000000000000000, 0.000000000000000000, 0.2049999999999999878 ) ) ;
#585 = CARTESIAN_POINT ( 'NONE',  ( -1.000000000000000000, 2.665000000000000036, -1.850000000000000089 ) ) ;
#586 = VERTEX_POINT ( 'NONE', #273 ) ;
#587 = LINE ( 'NONE', #631, #936 ) ;
#588 = VERTEX_POINT ( 'NONE', #357 ) ;
#589 = FACE_OUTER_BOUND ( 'NONE', #736, .T. ) ;
#590 = PLANE ( 'NONE',  #274 ) ;
#591 = EDGE_CURVE ( 'NONE', #735, #131, #311, .T. ) ;
#592 = ORIENTED_EDGE ( 'NONE', *, *, #974, .T. ) ;
#593 = PRESENTATION_STYLE_ASSIGNMENT (( #258 ) ) ;
#594 = DIRECTION ( 'NONE',  ( 0.000000000000000000, 1.000000000000000000, 0.000000000000000000 ) ) ;
#595 = AXIS2_PLACEMENT_3D ( 'NONE', #813, #899, #684 ) ;
#596 = CARTESIAN_POINT ( 'NONE',  ( 2.371154781957514501, 5.330000000000000071, 0.3950000000000000178 ) ) ;
#597 = CYLINDRICAL_SURFACE ( 'NONE', #13, 2.380000000000000338 ) ;
#598 = AXIS2_PLACEMENT_3D ( 'NONE', #432, #758, #928 ) ;
#599 = DIRECTION ( 'NONE',  ( 0.000000000000000000, 1.000000000000000000, 0.000000000000000000 ) ) ;
#600 = FACE_OUTER_BOUND ( 'NONE', #560, .T. ) ;
#601 = PLANE ( 'NONE',  #543 ) ;
#602 = VECTOR ( 'NONE', #808, 1000.000000000000000 ) ;
#603 = CARTESIAN_POINT ( 'NONE',  ( 2.281673065447709980, 0.000000000000000000, 1.430000000000000160 ) ) ;
#604 = LINE ( 'NONE', #900, #910 ) ;
#605 = FILL_AREA_STYLE ('',( #509 ) ) ;
#606 = DIRECTION ( 'NONE',  ( 0.000000000000000000, 0.000000000000000000, -1.000000000000000000 ) ) ;
#607 = VECTOR ( 'NONE', #873, 1000.000000000000000 ) ;
#608 = CARTESIAN_POINT ( 'NONE',  ( 2.326828918379969947E-17, 5.330000000000000071, -2.189999999999999947 ) ) ;
#609 = LINE ( 'NONE', #114, #938 ) ;
#610 = AXIS2_PLACEMENT_3D ( 'NONE', #204, #768, #133 ) ;
#611 = VECTOR ( 'NONE', #115, 1000.000000000000000 ) ;
#612 = PLANE ( 'NONE',  #428 ) ;
#613 = CARTESIAN_POINT ( 'NONE',  ( -0.4429598065210004765, 3.561650967111491539, -2.148309796259488813 ) ) ;
#614 = CARTESIAN_POINT ( 'NONE',  ( -2.371154781957514501, 0.000000000000000000, 0.3950000000000000178 ) ) ;
#615 = VECTOR ( 'NONE', #792, 1000.000000000000000 ) ;
#616 = APPLICATION_PROTOCOL_DEFINITION ( 'draft international standard', 'automotive_design', 1998, #724 ) ;
#617 = EDGE_CURVE ( 'NONE', #58, #254, #959, .T. ) ;
#618 = ADVANCED_FACE ( 'NONE', ( #319 ), #495, .T. ) ;
#619 = LINE ( 'NONE', #418, #324 ) ;
#620 = LINE ( 'NONE', #534, #1000 ) ;
#621 = CARTESIAN_POINT ( 'NONE',  ( 0.2300000000000000100, 0.000000000000000000, 0.2049999999999999878 ) ) ;
#622 = FACE_OUTER_BOUND ( 'NONE', #748, .T. ) ;
#623 = CARTESIAN_POINT ( 'NONE',  ( -0.9235997316562702952, 3.048366622804223880, -2.003482388887483090 ) ) ;
#624 = DIRECTION ( 'NONE',  ( 1.000000000000000000, 0.000000000000000000, 0.000000000000000000 ) ) ;
#625 = VECTOR ( 'NONE', #710, 1000.000000000000000 ) ;
#626 = COLOUR_RGB ( '',0.7921568627450980005, 0.8196078431372548767, 0.9333333333333333481 ) ;
#627 = PRODUCT_CONTEXT ( 'NONE', #135, 'mechanical' ) ;
#628 =( GEOMETRIC_REPRESENTATION_CONTEXT ( 3 ) GLOBAL_UNCERTAINTY_ASSIGNED_CONTEXT ( ( #695 ) ) GLOBAL_UNIT_ASSIGNED_CONTEXT ( ( #301, #541, #314 ) ) REPRESENTATION_CONTEXT ( 'NONE', 'WORKASPACE' ) );
#629 = VECTOR ( 'NONE', #246, 1000.000000000000000 ) ;
#630 = DIRECTION ( 'NONE',  ( 0.000000000000000000, -1.000000000000000000, 0.000000000000000000 ) ) ;
#631 = CARTESIAN_POINT ( 'NONE',  ( -0.2300000000000000100, 0.000000000000000000, -0.2049999999999999878 ) ) ;
#632 = DIRECTION ( 'NONE',  ( -0.9962835218308896401, 0.000000000000000000, -0.08613445378151207699 ) ) ;
#633 = PRESENTATION_STYLE_ASSIGNMENT (( #637 ) ) ;
#634 = DIRECTION ( 'NONE',  ( -1.000000000000000000, 0.000000000000000000, 1.425535746865771721E-16 ) ) ;
#635 = CARTESIAN_POINT ( 'NONE',  ( -0.9446635465852167846, 2.993839536603258189, -1.994549918964141355 ) ) ;
#636 = CARTESIAN_POINT ( 'NONE',  ( -0.2300000000000000100, -15.62000000000000099, 0.2049999999999999878 ) ) ;
#637 = SURFACE_STYLE_USAGE ( .BOTH. , #858 ) ;
#638 = LINE ( 'NONE', #654, #958 ) ;
#639 = PRODUCT_DEFINITION_SHAPE ( 'NONE', 'NONE',  #348 ) ;
#640 = DIRECTION ( 'NONE',  ( 0.000000000000000000, 0.000000000000000000, -1.000000000000000000 ) ) ;
#641 = LINE ( 'NONE', #344, #279 ) ;
#642 = CARTESIAN_POINT ( 'NONE',  ( 1.039999999999999813, -15.62000000000000099, 0.2049999999999999878 ) ) ;
#643 = VECTOR ( 'NONE', #436, 1000.000000000000000 ) ;
#644 = CARTESIAN_POINT ( 'NONE',  ( 0.9294158323875771899, 2.295940001423115273, -2.001029251007298004 ) ) ;
#645 = EDGE_CURVE ( 'NONE', #211, #881, #309, .T. ) ;
#646 = DIRECTION ( 'NONE',  ( 1.000000000000000000, 0.000000000000000000, 0.000000000000000000 ) ) ;
#647 = VECTOR ( 'NONE', #349, 1000.000000000000000 ) ;
#648 = AXIS2_PLACEMENT_3D ( 'NONE', #502, #751, #289 ) ;
#649 = LINE ( 'NONE', #353, #651 ) ;
#650 =( LENGTH_UNIT ( ) NAMED_UNIT ( * ) SI_UNIT ( .MILLI., .METRE. ) );
#651 = VECTOR ( 'NONE', #123, 1000.000000000000000 ) ;
#652 = DIRECTION ( 'NONE',  ( 0.08613445378151206311, 0.000000000000000000, 0.9962835218308895291 ) ) ;
#653 = VECTOR ( 'NONE', #755, 1000.000000000000000 ) ;
#654 = CARTESIAN_POINT ( 'NONE',  ( 1.500000000000000000, -15.62000000000000099, 0.2049999999999999878 ) ) ;
#655 = LINE ( 'NONE', #155, #280 ) ;
#656 = VECTOR ( 'NONE', #64, 1000.000000000000000 ) ;
#657 = ADVANCED_FACE ( 'NONE', ( #661 ), #313, .F. ) ;
#658 = PLANE ( 'NONE',  #595 ) ;
#659 = B_SPLINE_CURVE_WITH_KNOTS ( 'NONE', 3,
 ( #316, #223, #997, #1004, #73, #520, #635, #911, #132, #762, #623, #823, #295, #932, #766, #435, #212, #68, #706, #452, #840, #366, #4, #613, #307, #83, #692, #382, #939, #448, #757, #814 ),
 .UNSPECIFIED., .F., .F.,
 ( 4, 2, 2, 1, 1, 2, 2, 2, 2, 2, 2, 2, 2, 1, 1, 2, 2, 4 ),
 ( 0.000000000000000000, 0.1249999999999881484, 0.1874999999999826805, 0.2187499999999803768, 0.2343749999999788503, 0.2421874999999782119, 0.2499999999999775180, 0.3749999999999815148, 0.4374999999999839018, 0.4687499999999853451, 0.4999999999999867883, 0.6249999999999921174, 0.6874999999999950040, 0.7187499999999965583, 0.7343749999999971134, 0.7421874999999971134, 0.7499999999999971134, 1.000000000000000000 ),
 .UNSPECIFIED. ) ;
#660 = LINE ( 'NONE', #984, #960 ) ;
#661 = FACE_OUTER_BOUND ( 'NONE', #824, .T. ) ;
#662 = DIRECTION ( 'NONE',  ( 1.000000000000000000, 0.000000000000000000, 0.000000000000000000 ) ) ;
#663 = SURFACE_STYLE_FILL_AREA ( #833 ) ;
#664 = DIRECTION ( 'NONE',  ( -1.000000000000000000, 0.000000000000000000, 0.000000000000000000 ) ) ;
#665 = LINE ( 'NONE', #190, #285 ) ;
#666 = LINE ( 'NONE', #425, #988 ) ;
#667 = AXIS2_PLACEMENT_3D ( 'NONE', #636, #664, #150 ) ;
#668 = DIRECTION ( 'NONE',  ( 1.000000000000000000, 0.000000000000000000, 0.000000000000000000 ) ) ;
#669 = LINE ( 'NONE', #510, #672 ) ;
#670 = CARTESIAN_POINT ( 'NONE',  ( 0.000000000000000000, -15.62000000000000099, 0.000000000000000000 ) ) ;
#671 = EDGE_CURVE ( 'NONE', #158, #47, #660, .T. ) ;
#672 = VECTOR ( 'NONE', #594, 1000.000000000000000 ) ;
#673 = CARTESIAN_POINT ( 'NONE',  ( -1.039999999999999813, -15.62000000000000099, 0.2049999999999999878 ) ) ;
#674 = COLOUR_RGB ( '',0.7921568627450980005, 0.8196078431372548767, 0.9333333333333333481 ) ;
#675 = CARTESIAN_POINT ( 'NONE',  ( -1.039999999999999813, -15.62000000000000099, -0.2049999999999999878 ) ) ;
#676 = UNCERTAINTY_MEASURE_WITH_UNIT (LENGTH_MEASURE( 1.000000000000000082E-05 ), #298, 'distance_accuracy_value', 'NONE');
#677 = CARTESIAN_POINT ( 'NONE',  ( -1.500000000000000000, 0.000000000000000000, -0.2049999999999999878 ) ) ;
#678 =( GEOMETRIC_REPRESENTATION_CONTEXT ( 3 ) GLOBAL_UNCERTAINTY_ASSIGNED_CONTEXT ( ( #908 ) ) GLOBAL_UNIT_ASSIGNED_CONTEXT ( ( #216, #835, #941 ) ) REPRESENTATION_CONTEXT ( 'NONE', 'WORKASPACE' ) );
#679 = CARTESIAN_POINT ( 'NONE',  ( -0.1270170961512803731, 1.670911371345523921, -2.187383829276737135 ) ) ;
#680 = FACE_OUTER_BOUND ( 'NONE', #815, .T. ) ;
#681 = DIRECTION ( 'NONE',  ( 0.000000000000000000, 1.000000000000000000, 0.000000000000000000 ) ) ;
#682 = VECTOR ( 'NONE', #630, 1000.000000000000000 ) ;
#683 = DIRECTION ( 'NONE',  ( 0.000000000000000000, 0.000000000000000000, 1.000000000000000000 ) ) ;
#684 = DIRECTION ( 'NONE',  ( 1.000000000000000000, 0.000000000000000000, 0.000000000000000000 ) ) ;
#685 = EDGE_CURVE ( 'NONE', #158, #34, #991, .T. ) ;
#686 = PLANE ( 'NONE',  #610 ) ;
#687 = CARTESIAN_POINT ( 'NONE',  ( 0.000000000000000000, -15.62000000000000099, 0.000000000000000000 ) ) ;
#688 = SURFACE_SIDE_STYLE ('',( #663 ) ) ;
#689 = PLANE ( 'NONE',  #856 ) ;
#690 = EDGE_CURVE ( 'NONE', #897, #735, #996, .T. ) ;
#691 = CARTESIAN_POINT ( 'NONE',  ( -2.281673065447709980, 5.330000000000000071, 1.430000000000000160 ) ) ;
#692 = CARTESIAN_POINT ( 'NONE',  ( -0.3962442504513307151, 3.583150093119973345, -2.156777285619535078 ) ) ;
#693 = AXIS2_PLACEMENT_3D ( 'NONE', #946, #335, #101 ) ;
#694 = CARTESIAN_POINT ( 'NONE',  ( 2.326828918379969947E-17, 5.330000000000000071, -2.189999999999999947 ) ) ;
#695 = UNCERTAINTY_MEASURE_WITH_UNIT (LENGTH_MEASURE( 1.000000000000000082E-05 ), #301, 'distance_accuracy_value', 'NONE');
#696 = ORIENTED_EDGE ( 'NONE', *, *, #551, .F. ) ;
#697 = PRODUCT_CONTEXT ( 'NONE', #724, 'mechanical' ) ;
#698 = ORIENTED_EDGE ( 'NONE', *, *, #783, .T. ) ;
#699 = FILL_AREA_STYLE ('',( #374 ) ) ;
#700 = CARTESIAN_POINT ( 'NONE',  ( 0.000000000000000000, 0.000000000000000000, 0.000000000000000000 ) ) ;
#701 = ADVANCED_BREP_SHAPE_REPRESENTATION ( '', ( #417, #901, #753, #447, #113 ), #518 ) ;
#702 = ORIENTED_EDGE ( 'NONE', *, *, #406, .T. ) ;
#703 = ORIENTED_EDGE ( 'NONE', *, *, #475, .T. ) ;
#704 = DIRECTION ( 'NONE',  ( 0.000000000000000000, 0.000000000000000000, -1.000000000000000000 ) ) ;
#705 = VERTEX_POINT ( 'NONE', #110 ) ;
#706 = CARTESIAN_POINT ( 'NONE',  ( -0.7215534836470995916, 3.357667630700018613, -2.078037768765920390 ) ) ;
#707 = ORIENTED_EDGE ( 'NONE', *, *, #403, .T. ) ;
#708 = PLANE ( 'NONE',  #72 ) ;
#709 = AXIS2_PLACEMENT_3D ( 'NONE', #93, #722, #555 ) ;
#710 = DIRECTION ( 'NONE',  ( 0.000000000000000000, 0.000000000000000000, 1.000000000000000000 ) ) ;
#711 = PLANE ( 'NONE',  #415 ) ;
#712 = ORIENTED_EDGE ( 'NONE', *, *, #645, .F. ) ;
#713 = CARTESIAN_POINT ( 'NONE',  ( 0.9342152837940864707, 2.308104423316035714, -1.998998343691914759 ) ) ;
#714 = EDGE_CURVE ( 'NONE', #565, #798, #619, .T. ) ;
#715 = ORIENTED_EDGE ( 'NONE', *, *, #1012, .T. ) ;
#716 = DIRECTION ( 'NONE',  ( 1.000000000000000000, 0.000000000000000000, 0.000000000000000000 ) ) ;
#717 = ADVANCED_FACE ( 'NONE', ( #315 ), #601, .F. ) ;
#718 = CARTESIAN_POINT ( 'NONE',  ( 2.371154781957514501, 5.330000000000000071, 0.3950000000000000178 ) ) ;
#719 = ORIENTED_EDGE ( 'NONE', *, *, #456, .F. ) ;
#720 = DIRECTION ( 'NONE',  ( 1.000000000000000000, 0.000000000000000000, 0.000000000000000000 ) ) ;
#721 = ORIENTED_EDGE ( 'NONE', *, *, #617, .F. ) ;
#722 = DIRECTION ( 'NONE',  ( 0.000000000000000000, 0.000000000000000000, 1.000000000000000000 ) ) ;
#723 = ORIENTED_EDGE ( 'NONE', *, *, #124, .F. ) ;
#724 = APPLICATION_CONTEXT ( 'automotive_design' ) ;
#725 = STYLED_ITEM ( 'NONE', ( #633 ), #701 ) ;
#726 = ORIENTED_EDGE ( 'NONE', *, *, #733, .F. ) ;
#727 = PRODUCT_RELATED_PRODUCT_CATEGORY ( 'part', '', ( #566 ) ) ;
#728 = ADVANCED_FACE ( 'NONE', ( #982 ), #686, .T. ) ;
#729 = DIRECTION ( 'NONE',  ( 0.000000000000000000, 0.000000000000000000, 1.000000000000000000 ) ) ;
#730 = CARTESIAN_POINT ( 'NONE',  ( 1.039999999999999813, 0.000000000000000000, 0.2049999999999999878 ) ) ;
#731 = ORIENTED_EDGE ( 'NONE', *, *, #38, .F. ) ;
#732 = DIRECTION ( 'NONE',  ( 1.000000000000000000, 0.000000000000000000, 0.000000000000000000 ) ) ;
#733 = EDGE_CURVE ( 'NONE', #34, #378, #665, .T. ) ;
#734 = ORIENTED_EDGE ( 'NONE', *, *, #749, .F. ) ;
#735 = VERTEX_POINT ( 'NONE', #614 ) ;
#736 = EDGE_LOOP ( 'NONE', ( #143, #463, #707, #698 ) ) ;
#737 = CARTESIAN_POINT ( 'NONE',  ( -2.281673065447709980, 5.330000000000000071, 1.430000000000000160 ) ) ;
#738 = ORIENTED_EDGE ( 'NONE', *, *, #985, .T. ) ;
#739 = CARTESIAN_POINT ( 'NONE',  ( 0.7374469660424584072, 1.989273660742481686, -2.072966127847840401 ) ) ;
#740 = CARTESIAN_POINT ( 'NONE',  ( 0.8819533866707397474, 3.137076245724531365, -2.020967854007508446 ) ) ;
#741 = CARTESIAN_POINT ( 'NONE',  ( 1.500000000000000000, -15.62000000000000099, -0.2049999999999999878 ) ) ;
#742 = EDGE_CURVE ( 'NONE', #130, #565, #649, .T. ) ;
#743 = DIRECTION ( 'NONE',  ( -1.000000000000000000, 0.000000000000000000, 2.356961244533704927E-16 ) ) ;
#744 = DIRECTION ( 'NONE',  ( -1.000000000000000000, 0.000000000000000000, 2.356961244533704927E-16 ) ) ;
#745 = PRODUCT_DEFINITION_CONTEXT ( 'detailed design', #242, 'design' ) ;
#746 = DIRECTION ( 'NONE',  ( 0.000000000000000000, 0.000000000000000000, 1.000000000000000000 ) ) ;
#747 = CARTESIAN_POINT ( 'NONE',  ( 2.281673065447709980, 5.330000000000000071, 1.430000000000000160 ) ) ;
#748 = EDGE_LOOP ( 'NONE', ( #719, #795, #803, #243 ) ) ;
#749 = EDGE_CURVE ( 'NONE', #894, #131, #300, .T. ) ;
#750 = CARTESIAN_POINT ( 'NONE',  ( -0.2240640280272424567, 1.689868369178849195, -2.179535317106952252 ) ) ;
#751 = DIRECTION ( 'NONE',  ( 0.000000000000000000, 0.000000000000000000, 1.000000000000000000 ) ) ;
#752 = DIRECTION ( 'NONE',  ( -2.356961244533704927E-16, 0.000000000000000000, -1.000000000000000000 ) ) ;
#753 = MANIFOLD_SOLID_BREP ( 'NONE', #528 ) ;
#754 = CARTESIAN_POINT ( 'NONE',  ( -0.2300000000000000100, -15.62000000000000099, -0.2049999999999999878 ) ) ;
#755 = DIRECTION ( 'NONE',  ( 0.000000000000000000, 1.000000000000000000, 0.000000000000000000 ) ) ;
#756 = DIRECTION ( 'NONE',  ( 0.000000000000000000, -1.000000000000000000, 0.000000000000000000 ) ) ;
#757 = CARTESIAN_POINT ( 'NONE',  ( -0.1254326891471806149, 3.665000000000002700, -2.190000000000138947 ) ) ;
#758 = DIRECTION ( 'NONE',  ( 0.000000000000000000, 1.000000000000000000, 0.000000000000000000 ) ) ;
#759 = DIRECTION ( 'NONE',  ( 0.08613445378151206311, 0.000000000000000000, -0.9962835218308895291 ) ) ;
#760 = DIRECTION ( 'NONE',  ( -1.425535746865771721E-16, 0.000000000000000000, -1.000000000000000000 ) ) ;
#761 = AXIS2_PLACEMENT_3D ( 'NONE', #255, #477, #333 ) ;
#762 = CARTESIAN_POINT ( 'NONE',  ( -0.9259779652014007434, 3.042602876653160759, -2.002480994463103237 ) ) ;
#763 = DIRECTION ( 'NONE',  ( 0.000000000000000000, 1.000000000000000000, 0.000000000000000000 ) ) ;
#764 = CARTESIAN_POINT ( 'NONE',  ( 0.000000000000000000, 0.000000000000000000, 0.000000000000000000 ) ) ;
#765 = CARTESIAN_POINT ( 'NONE',  ( -0.9211599278211191066, 2.275789580265421108, -2.005400002765405088 ) ) ;
#766 = CARTESIAN_POINT ( 'NONE',  ( -0.8131593170542151805, 3.248317473266045585, -2.047371250285808131 ) ) ;
#767 = AXIS2_PLACEMENT_3D ( 'NONE', #670, #579, #352 ) ;
#768 = DIRECTION ( 'NONE',  ( -1.000000000000000000, 0.000000000000000000, 0.000000000000000000 ) ) ;
#769 =( REPRESENTATION_RELATIONSHIP ('NONE','NONE', #875, #843 ) REPRESENTATION_RELATIONSHIP_WITH_TRANSFORMATION ( #221 )SHAPE_REPRESENTATION_RELATIONSHIP( ) );
#770 = ADVANCED_FACE ( 'NONE', ( #1003 ), #84, .T. ) ;
#771 = AXIS2_PLACEMENT_3D ( 'NONE', #76, #147, #519 ) ;
#772 = DIRECTION ( 'NONE',  ( 0.000000000000000000, -1.000000000000000000, 0.000000000000000000 ) ) ;
#773 = SURFACE_STYLE_USAGE ( .BOTH. , #122 ) ;
#774 = APPLICATION_PROTOCOL_DEFINITION ( 'draft international standard', 'automotive_design', 1998, #135 ) ;
#775 = EDGE_CURVE ( 'NONE', #807, #832, #666, .T. ) ;
#776 = DIRECTION ( 'NONE',  ( 0.000000000000000000, -1.000000000000000000, 0.000000000000000000 ) ) ;
#777 = CARTESIAN_POINT ( 'NONE',  ( 1.500000000000000000, 0.000000000000000000, 0.2049999999999999878 ) ) ;
#778 = CARTESIAN_POINT ( 'NONE',  ( 0.7215222658386677423, 1.972299574362911256, -2.078047751606775684 ) ) ;
#779 = APPLICATION_PROTOCOL_DEFINITION ( 'draft international standard', 'automotive_design', 1998, #853 ) ;
#780 = STYLED_ITEM ( 'NONE', ( #593 ), #447 ) ;
#781 = FILL_AREA_STYLE_COLOUR ( '', #674 ) ;
#782 = CARTESIAN_POINT ( 'NONE',  ( -1.000000000000000000, 2.665000000000000036, -1.850000000000000089 ) ) ;
#783 = EDGE_CURVE ( 'NONE', #226, #59, #325, .T. ) ;
#784 = DIRECTION ( 'NONE',  ( 0.000000000000000000, 0.000000000000000000, 1.000000000000000000 ) ) ;
#785 = FACE_OUTER_BOUND ( 'NONE', #40, .T. ) ;
#786 = PRODUCT ( '135AN', '135AN', '', ( #697 ) ) ;
#787 = CARTESIAN_POINT ( 'NONE',  ( -1.500000000000000000, -15.62000000000000099, 0.2049999999999999878 ) ) ;
#788 = CARTESIAN_POINT ( 'NONE',  ( 0.2569982654326321003, 3.632004019220557822, -2.176213055117171002 ) ) ;
#789 = EDGE_CURVE ( 'NONE', #459, #897, #949, .T. ) ;
#790 = DIRECTION ( 'NONE',  ( 0.000000000000000000, 0.000000000000000000, -1.000000000000000000 ) ) ;
#791 = PRODUCT_RELATED_PRODUCT_CATEGORY ( 'part', '', ( #786 ) ) ;
#792 = DIRECTION ( 'NONE',  ( 0.08613445378151206311, 0.000000000000000000, 0.9962835218308895291 ) ) ;
#793 = PRODUCT_DEFINITION_SHAPE ( 'NONE', 'NONE',  #1015 ) ;
#794 = EDGE_LOOP ( 'NONE', ( #208, #721, #21, #874 ) ) ;
#795 = ORIENTED_EDGE ( 'NONE', *, *, #536, .F. ) ;
#796 = CARTESIAN_POINT ( 'NONE',  ( 0.3833042382503283885, 3.588626822184697307, -2.158932722806464533 ) ) ;
#797 = ORIENTED_EDGE ( 'NONE', *, *, #789, .F. ) ;
#798 = VERTEX_POINT ( 'NONE', #999 ) ;
#799 = DIRECTION ( 'NONE',  ( 0.000000000000000000, -1.000000000000000000, 0.000000000000000000 ) ) ;
#800 = EDGE_CURVE ( 'NONE', #480, #897, #334, .T. ) ;
#801 = CARTESIAN_POINT ( 'NONE',  ( -2.371154781957514501, 0.000000000000000000, 0.3950000000000000178 ) ) ;
#802 = EDGE_LOOP ( 'NONE', ( #562, #160, #481, #129 ) ) ;
#803 = ORIENTED_EDGE ( 'NONE', *, *, #742, .F. ) ;
#804 = CARTESIAN_POINT ( 'NONE',  ( 2.999514375626395025E-14, 3.665000000000339764, -2.190000000000140279 ) ) ;
#805 = ORIENTED_EDGE ( 'NONE', *, *, #854, .T. ) ;
#806 = CARTESIAN_POINT ( 'NONE',  ( -0.2564991973809440662, 1.697865821116244289, -2.176265103702875070 ) ) ;
#807 = VERTEX_POINT ( 'NONE', #383 ) ;
#808 = DIRECTION ( 'NONE',  ( 1.000000000000000000, 0.000000000000000000, 0.000000000000000000 ) ) ;
#809 = STYLED_ITEM ( 'NONE', ( #305 ), #753 ) ;
#810 = DIRECTION ( 'NONE',  ( 0.000000000000000000, 1.000000000000000000, 0.000000000000000000 ) ) ;
#811 = ORIENTED_EDGE ( 'NONE', *, *, #974, .F. ) ;
#812 = VERTEX_POINT ( 'NONE', #1006 ) ;
#813 = CARTESIAN_POINT ( 'NONE',  ( 2.326828918379969947E-17, 0.000000000000000000, 0.1900000000000000022 ) ) ;
#814 = CARTESIAN_POINT ( 'NONE',  ( 2.999514375626395025E-14, 3.665000000000339764, -2.190000000000140279 ) ) ;
#815 = EDGE_LOOP ( 'NONE', ( #811, #904, #153, #550, #205, #44, #222 ) ) ;
#816 = CARTESIAN_POINT ( 'NONE',  ( -0.3292016999736400718, 1.720469344066345219, -2.167190261506559690 ) ) ;
#817 = ORIENTED_EDGE ( 'NONE', *, *, #394, .F. ) ;
#818 = EDGE_CURVE ( 'NONE', #130, #251, #669, .T. ) ;
#819 = DIRECTION ( 'NONE',  ( 0.000000000000000000, 0.000000000000000000, -1.000000000000000000 ) ) ;
#820 = AXIS2_PLACEMENT_3D ( 'NONE', #687, #756, #187 ) ;
#821 = ORIENTED_EDGE ( 'NONE', *, *, #961, .F. ) ;
#822 = FACE_OUTER_BOUND ( 'NONE', #36, .T. ) ;
#823 = CARTESIAN_POINT ( 'NONE',  ( -0.9069705076193910198, 3.088144228421309201, -2.010474380730871147 ) ) ;
#824 = EDGE_LOOP ( 'NONE', ( #878, #127, #196, #387, #712 ) ) ;
#825 = AXIS2_PLACEMENT_3D ( 'NONE', #995, #363, #486 ) ;
#826 = CARTESIAN_POINT ( 'NONE',  ( -0.3573062595547050746, 1.730943469705971793, -2.163041178250137531 ) ) ;
#827 = ORIENTED_EDGE ( 'NONE', *, *, #356, .T. ) ;
#828 = VECTOR ( 'NONE', #599, 1000.000000000000000 ) ;
#829 = ORIENTED_EDGE ( 'NONE', *, *, #403, .F. ) ;
#830 = CARTESIAN_POINT ( 'NONE',  ( 1.500000000000000000, 0.000000000000000000, 0.2049999999999999878 ) ) ;
#831 = EDGE_CURVE ( 'NONE', #459, #881, #144, .T. ) ;
#832 = VERTEX_POINT ( 'NONE', #10 ) ;
#833 = FILL_AREA_STYLE ('',( #933 ) ) ;
#834 = LINE ( 'NONE', #185, #163 ) ;
#835 =( NAMED_UNIT ( * ) PLANE_ANGLE_UNIT ( ) SI_UNIT ( $, .RADIAN. ) );
#836 = VECTOR ( 'NONE', #970, 1000.000000000000000 ) ;
#837 = ADVANCED_FACE ( 'NONE', ( #680 ), #328, .T. ) ;
#838 = LINE ( 'NONE', #421, #842 ) ;
#839 = MECHANICAL_DESIGN_GEOMETRIC_PRESENTATION_REPRESENTATION (  '', ( #361 ), #628 ) ;
#840 = CARTESIAN_POINT ( 'NONE',  ( -0.5891406827204693775, 3.475636365219412216, -2.116230480968413374 ) ) ;
#841 = VECTOR ( 'NONE', #544, 1000.000000000000000 ) ;
#842 = VECTOR ( 'NONE', #652, 1000.000000000000000 ) ;
#843 = SHAPE_REPRESENTATION ( 'KSC1008YBU_KSC1008YBU^KSC1008YBU(2)_135AN', ( #113 ), #518 ) ;
#844 = DIRECTION ( 'NONE',  ( 0.000000000000000000, 0.000000000000000000, 1.000000000000000000 ) ) ;
#845 = FACE_OUTER_BOUND ( 'NONE', #371, .T. ) ;
#846 = EDGE_CURVE ( 'NONE', #43, #364, #2, .T. ) ;
#847 = PLANE ( 'NONE',  #954 ) ;
#848 = DIRECTION ( 'NONE',  ( -1.000000000000000000, 0.000000000000000000, 2.356961244533704927E-16 ) ) ;
#849 = CARTESIAN_POINT ( 'NONE',  ( 0.9942770735865261722, 2.539469837752834191, -1.972563255029398332 ) ) ;
#850 = FILL_AREA_STYLE ('',( #781 ) ) ;
#851 = DIRECTION ( 'NONE',  ( 0.000000000000000000, 0.000000000000000000, -1.000000000000000000 ) ) ;
#852 =( NAMED_UNIT ( * ) PLANE_ANGLE_UNIT ( ) SI_UNIT ( $, .RADIAN. ) );
#853 = APPLICATION_CONTEXT ( 'automotive_design' ) ;
#854 = EDGE_CURVE ( 'NONE', #577, #480, #8, .T. ) ;
#855 = DIRECTION ( 'NONE',  ( 0.000000000000000000, -1.000000000000000000, 0.000000000000000000 ) ) ;
#856 = AXIS2_PLACEMENT_3D ( 'NONE', #63, #360, #681 ) ;
#857 = CARTESIAN_POINT ( 'NONE',  ( 0.4245842976243644484, 1.759452749609376143, -2.151801988081626593 ) ) ;
#858 = SURFACE_SIDE_STYLE ('',( #968 ) ) ;
#859 = CARTESIAN_POINT ( 'NONE',  ( -1.500000000000000000, 0.000000000000000000, 0.2049999999999999878 ) ) ;
#860 = CARTESIAN_POINT ( 'NONE',  ( 0.9754676251827261169, 2.442403745777764978, -1.981086407041493747 ) ) ;
#861 = CARTESIAN_POINT ( 'NONE',  ( -1.500000000000000000, -15.62000000000000099, -0.2049999999999999878 ) ) ;
#862 = VERTEX_POINT ( 'NONE', #91 ) ;
#863 = CARTESIAN_POINT ( 'NONE',  ( -1.039999999999999813, 0.000000000000000000, 0.2049999999999999878 ) ) ;
#864 = ORIENTED_EDGE ( 'NONE', *, *, #714, .T. ) ;
#865 = CARTESIAN_POINT ( 'NONE',  ( 0.9261569584336130090, 2.287836427544676088, -2.002405384925918241 ) ) ;
#866 = EDGE_LOOP ( 'NONE', ( #553, #734, #404, #154 ) ) ;
#867 = AXIS2_PLACEMENT_3D ( 'NONE', #290, #752, #743 ) ;
#868 = EDGE_LOOP ( 'NONE', ( #731, #491, #26, #145 ) ) ;
#869 = CARTESIAN_POINT ( 'NONE',  ( -1.500000000000000000, -15.62000000000000099, 0.2049999999999999878 ) ) ;
#870 = UNCERTAINTY_MEASURE_WITH_UNIT (LENGTH_MEASURE( 1.000000000000000082E-05 ), #650, 'distance_accuracy_value', 'NONE');
#871 = ORIENTED_EDGE ( 'NONE', *, *, #12, .F. ) ;
#872 = PRODUCT ( 'KSC1008YBU(2)^135AN', 'KSC1008YBU(2)^135AN', '', ( #627 ) ) ;
#873 = DIRECTION ( 'NONE',  ( 0.08613445378151206311, 0.000000000000000000, -0.9962835218308895291 ) ) ;
#874 = ORIENTED_EDGE ( 'NONE', *, *, #916, .T. ) ;
#875 = SHAPE_REPRESENTATION ( 'KSC1008YBU(2)^135AN', ( #80, #31 ), #678 ) ;
#876 = DIRECTION ( 'NONE',  ( 0.000000000000000000, 1.000000000000000000, 0.000000000000000000 ) ) ;
#877 = EDGE_CURVE ( 'NONE', #59, #254, #331, .T. ) ;
#878 = ORIENTED_EDGE ( 'NONE', *, *, #380, .T. ) ;
#879 = VERTEX_POINT ( 'NONE', #457 ) ;
#880 = DIRECTION ( 'NONE',  ( 0.000000000000000000, 0.000000000000000000, 1.000000000000000000 ) ) ;
#881 = VERTEX_POINT ( 'NONE', #525 ) ;
#882 = CARTESIAN_POINT ( 'NONE',  ( -0.2300000000000000100, 0.000000000000000000, 0.2049999999999999878 ) ) ;
#883 = ORIENTED_EDGE ( 'NONE', *, *, #943, .F. ) ;
#884 = PRODUCT_DEFINITION ( 'UNKNOWN', '', #79, #885 ) ;
#885 = PRODUCT_DEFINITION_CONTEXT ( 'detailed design', #152, 'design' ) ;
#886 = DIRECTION ( 'NONE',  ( -1.000000000000000000, 0.000000000000000000, 0.000000000000000000 ) ) ;
#887 = PRESENTATION_LAYER_ASSIGNMENT (  '', '', ( #725 ) ) ;
#888 = ORIENTED_EDGE ( 'NONE', *, *, #523, .F. ) ;
#889 = ORIENTED_EDGE ( 'NONE', *, *, #742, .T. ) ;
#890 = CARTESIAN_POINT ( 'NONE',  ( 0.3055807615420505496, 3.617316448761337178, -2.170304364453040424 ) ) ;
#891 = ORIENTED_EDGE ( 'NONE', *, *, #423, .F. ) ;
#892 = CARTESIAN_POINT ( 'NONE',  ( -0.3693140351805760391, 1.735685351355013006, -2.161171024959680942 ) ) ;
#893 = CARTESIAN_POINT ( 'NONE',  ( 1.000000000000000000, 2.665000000000000036, -1.969722204358700157 ) ) ;
#894 = VERTEX_POINT ( 'NONE', #321 ) ;
#895 = EDGE_CURVE ( 'NONE', #219, #735, #337, .T. ) ;
#896 = CARTESIAN_POINT ( 'NONE',  ( 0.2300000000000000100, -15.62000000000000099, -0.2049999999999999878 ) ) ;
#897 = VERTEX_POINT ( 'NONE', #395 ) ;
#898 = ORIENTED_EDGE ( 'NONE', *, *, #1001, .T. ) ;
#899 = DIRECTION ( 'NONE',  ( -0.000000000000000000, 1.000000000000000000, 0.000000000000000000 ) ) ;
#900 = CARTESIAN_POINT ( 'NONE',  ( 1.039999999999999813, -15.62000000000000099, -0.2049999999999999878 ) ) ;
#901 = MANIFOLD_SOLID_BREP ( 'NONE', #923 ) ;
#902 = EDGE_LOOP ( 'NONE', ( #930, #546, #373, #702, #581 ) ) ;
#903 = CARTESIAN_POINT ( 'NONE',  ( -0.3825764505794507220, 1.741071474335377012, -2.159051281351313634 ) ) ;
#904 = ORIENTED_EDGE ( 'NONE', *, *, #85, .T. ) ;
#905 = VECTOR ( 'NONE', #179, 1000.000000000000000 ) ;
#906 = ORIENTED_EDGE ( 'NONE', *, *, #437, .T. ) ;
#907 = FACE_OUTER_BOUND ( 'NONE', #868, .T. ) ;
#908 = UNCERTAINTY_MEASURE_WITH_UNIT (LENGTH_MEASURE( 1.000000000000000082E-05 ), #216, 'distance_accuracy_value', 'NONE');
#909 = VERTEX_POINT ( 'NONE', #830 ) ;
#910 = VECTOR ( 'NONE', #149, 1000.000000000000000 ) ;
#911 = CARTESIAN_POINT ( 'NONE',  ( -0.9340567374171646620, 3.022310821531773772, -1.999066071352048723 ) ) ;
#912 = SHAPE_DEFINITION_REPRESENTATION ( #639, #875 ) ;
#913 = EDGE_LOOP ( 'NONE', ( #146, #549, #715, #136 ) ) ;
#914 = CARTESIAN_POINT ( 'NONE',  ( -0.4287443239651076987, 1.760347834905626518, -2.151480670833564535 ) ) ;
#915 = VECTOR ( 'NONE', #851, 1000.000000000000000 ) ;
#916 = EDGE_CURVE ( 'NONE', #22, #807, #312, .T. ) ;
#917 = DIRECTION ( 'NONE',  ( 1.000000000000000000, 0.000000000000000000, 0.000000000000000000 ) ) ;
#918 = CARTESIAN_POINT ( 'NONE',  ( 1.039999999999999813, 0.000000000000000000, 0.2049999999999999878 ) ) ;
#919 = ORIENTED_EDGE ( 'NONE', *, *, #1013, .F. ) ;
#920 = ORIENTED_EDGE ( 'NONE', *, *, #356, .F. ) ;
#921 = PRESENTATION_STYLE_ASSIGNMENT (( #773 ) ) ;
#922 = DIRECTION ( 'NONE',  ( 0.000000000000000000, 1.000000000000000000, 0.000000000000000000 ) ) ;
#923 = CLOSED_SHELL ( 'NONE', ( #728, #234, #99, #29, #925, #717 ) ) ;
#924 = LINE ( 'NONE', #174, #607 ) ;
#925 = ADVANCED_FACE ( 'NONE', ( #622 ), #612, .T. ) ;
#926 = CARTESIAN_POINT ( 'NONE',  ( -0.2300000000000000100, -15.62000000000000099, -0.2049999999999999878 ) ) ;
#927 = EDGE_LOOP ( 'NONE', ( #696, #235, #354, #69 ) ) ;
#928 = DIRECTION ( 'NONE',  ( 0.000000000000000000, 0.000000000000000000, 1.000000000000000000 ) ) ;
#929 = DIRECTION ( 'NONE',  ( 0.000000000000000000, 0.000000000000000000, 1.000000000000000000 ) ) ;
#930 = ORIENTED_EDGE ( 'NONE', *, *, #846, .F. ) ;
#931 = VECTOR ( 'NONE', #1010, 1000.000000000000000 ) ;
#932 = CARTESIAN_POINT ( 'NONE',  ( -0.8331982556106926063, 3.218927078854196822, -2.039996430959629681 ) ) ;
#933 = FILL_AREA_STYLE_COLOUR ( '', #626 ) ;
#934 = ADVANCED_FACE ( 'NONE', ( #302 ), #847, .F. ) ;
#935 = DIRECTION ( 'NONE',  ( 1.000000000000000000, 0.000000000000000000, 0.000000000000000000 ) ) ;
#936 = VECTOR ( 'NONE', #848, 1000.000000000000000 ) ;
#937 = VECTOR ( 'NONE', #257, 1000.000000000000000 ) ;
#938 = VECTOR ( 'NONE', #819, 1000.000000000000000 ) ;
#939 = CARTESIAN_POINT ( 'NONE',  ( -0.3892172191902847356, 3.586156126637447983, -2.157962057227239328 ) ) ;
#940 = CARTESIAN_POINT ( 'NONE',  ( 2.281673065447709980, 5.330000000000000071, 1.430000000000000160 ) ) ;
#941 =( NAMED_UNIT ( * ) SI_UNIT ( $, .STERADIAN. ) SOLID_ANGLE_UNIT ( ) );
#942 = LINE ( 'NONE', #882, #602 ) ;
#943 = EDGE_CURVE ( 'NONE', #47, #378, #655, .T. ) ;
#944 = CARTESIAN_POINT ( 'NONE',  ( -0.8123292080134552062, 2.078193058485815037, -2.048055202987264511 ) ) ;
#945 = FACE_OUTER_BOUND ( 'NONE', #530, .T. ) ;
#946 = CARTESIAN_POINT ( 'NONE',  ( -2.371154781957514501, 5.330000000000000071, 0.3950000000000000178 ) ) ;
#947 = CARTESIAN_POINT ( 'NONE',  ( -0.2300000000000000100, -15.62000000000000099, 0.2049999999999999878 ) ) ;
#948 = LINE ( 'NONE', #346, #915 ) ;
#949 = LINE ( 'NONE', #694, #955 ) ;
#950 = LINE ( 'NONE', #262, #990 ) ;
#951 = VECTOR ( 'NONE', #876, 1000.000000000000000 ) ;
#952 = PRODUCT_DEFINITION_FORMATION_WITH_SPECIFIED_SOURCE ( 'ANY', '', #872, .NOT_KNOWN. ) ;
#953 = CARTESIAN_POINT ( 'NONE',  ( -0.2300000000000000100, -15.62000000000000099, 0.2049999999999999878 ) ) ;
#954 = AXIS2_PLACEMENT_3D ( 'NONE', #691, #760, #634 ) ;
#955 = VECTOR ( 'NONE', #142, 1000.000000000000000 ) ;
#956 = CARTESIAN_POINT ( 'NONE',  ( 2.326828918379969947E-17, 5.330000000000000071, 0.1900000000000000022 ) ) ;
#957 = CARTESIAN_POINT ( 'NONE',  ( 0.3889813411488612371, 1.743744257334026937, -2.158001142575578957 ) ) ;
#958 = VECTOR ( 'NONE', #317, 1000.000000000000000 ) ;
#959 = LINE ( 'NONE', #896, #951 ) ;
#960 = VECTOR ( 'NONE', #810, 1000.000000000000000 ) ;
#961 = EDGE_CURVE ( 'NONE', #461, #202, #299, .T. ) ;
#962 = DIRECTION ( 'NONE',  ( 1.000000000000000000, 0.000000000000000000, 0.000000000000000000 ) ) ;
#963 = AXIS2_PLACEMENT_3D ( 'NONE', #329, #668, #157 ) ;
#964 = CARTESIAN_POINT ( 'NONE',  ( -1.039999999999999813, -15.62000000000000099, 0.2049999999999999878 ) ) ;
#965 = CARTESIAN_POINT ( 'NONE',  ( 0.9674962869164588364, 2.409837629099199852, -1.984637720379867742 ) ) ;
#966 = CARTESIAN_POINT ( 'NONE',  ( 0.5910341451030672877, 3.472496744789306700, -2.115318804424391352 ) ) ;
#967 = MECHANICAL_DESIGN_GEOMETRIC_PRESENTATION_REPRESENTATION (  '', ( #809 ), #7 ) ;
#968 = SURFACE_STYLE_FILL_AREA ( #466 ) ;
#969 = PRODUCT_DEFINITION_SHAPE ( 'NONE', 'NONE',  #112 ) ;
#970 = DIRECTION ( 'NONE',  ( 0.000000000000000000, 1.000000000000000000, 0.000000000000000000 ) ) ;
#971 = FACE_OUTER_BOUND ( 'NONE', #902, .T. ) ;
#972 = CARTESIAN_POINT ( 'NONE',  ( 0.8132627499562572471, 2.081823172140087941, -2.047335930602974585 ) ) ;
#973 = DIRECTION ( 'NONE',  ( 1.000000000000000000, 0.000000000000000000, 0.000000000000000000 ) ) ;
#974 = EDGE_CURVE ( 'NONE', #358, #219, #310, .T. ) ;
#975 = LINE ( 'NONE', #953, #275 ) ;
#976 = PLANE ( 'NONE',  #963 ) ;
#977 = FACE_OUTER_BOUND ( 'NONE', #455, .T. ) ;
#978 = AXIS2_PLACEMENT_3D ( 'NONE', #431, #49, #886 ) ;
#979 = CARTESIAN_POINT ( 'NONE',  ( 0.6492838817843360477, 3.425799937032082632, -2.099646480058408038 ) ) ;
#980 = CYLINDRICAL_SURFACE ( 'NONE', #761, 1.000000000000000000 ) ;
#981 = VECTOR ( 'NONE', #855, 1000.000000000000000 ) ;
#982 = FACE_OUTER_BOUND ( 'NONE', #538, .T. ) ;
#983 = CARTESIAN_POINT ( 'NONE',  ( 3.263683719727694617E-16, 2.665000000000000036, -1.850000000000000089 ) ) ;
#984 = CARTESIAN_POINT ( 'NONE',  ( 1.039999999999999813, -15.62000000000000099, -0.2049999999999999878 ) ) ;
#985 = EDGE_CURVE ( 'NONE', #583, #879, #993, .T. ) ;
#986 = FACE_OUTER_BOUND ( 'NONE', #794, .T. ) ;
#987 = COLOUR_RGB ( '',0.7921568627450980005, 0.8196078431372548767, 0.9333333333333333481 ) ;
#988 = VECTOR ( 'NONE', #214, 1000.000000000000000 ) ;
#989 = CARTESIAN_POINT ( 'NONE',  ( 0.7708760482291737715, 3.308164457224292310, -2.062660508284347660 ) ) ;
#990 = VECTOR ( 'NONE', #559, 1000.000000000000000 ) ;
#991 = LINE ( 'NONE', #57, #611 ) ;
#992 = CARTESIAN_POINT ( 'NONE',  ( 2.326828918379969947E-17, 5.330000000000000071, 0.1900000000000000022 ) ) ;
#993 = LINE ( 'NONE', #388, #981 ) ;
#994 = PLANE ( 'NONE',  #648 ) ;
#995 = CARTESIAN_POINT ( 'NONE',  ( 1.039999999999999813, -15.62000000000000099, -0.2049999999999999878 ) ) ;
#996 = CIRCLE ( 'NONE', #241, 2.380000000000000338 ) ;
#997 = CARTESIAN_POINT ( 'NONE',  ( -0.9942649598576580594, 2.790668632330673748, -1.972569827539252474 ) ) ;
#998 = FACE_OUTER_BOUND ( 'NONE', #558, .T. ) ;
#999 = CARTESIAN_POINT ( 'NONE',  ( -1.039999999999999813, 0.000000000000000000, -0.2049999999999999878 ) ) ;
#1000 = VECTOR ( 'NONE', #408, 1000.000000000000000 ) ;
#1001 = EDGE_CURVE ( 'NONE', #22, #705, #975, .T. ) ;
#1002 = VECTOR ( 'NONE', #732, 1000.000000000000000 ) ;
#1003 = FACE_OUTER_BOUND ( 'NONE', #478, .T. ) ;
#1004 = CARTESIAN_POINT ( 'NONE',  ( -0.9754110608670717442, 2.887849985923997220, -1.981112697080909202 ) ) ;
#1005 = PRESENTATION_STYLE_ASSIGNMENT (( #200 ) ) ;
#1006 = CARTESIAN_POINT ( 'NONE',  ( 2.999514375626395025E-14, 3.665000000000339764, -2.190000000000140279 ) ) ;
#1007 =( NAMED_UNIT ( * ) SI_UNIT ( $, .STERADIAN. ) SOLID_ANGLE_UNIT ( ) );
#1008 =( GEOMETRIC_REPRESENTATION_CONTEXT ( 3 ) GLOBAL_UNCERTAINTY_ASSIGNED_CONTEXT ( ( #303 ) ) GLOBAL_UNIT_ASSIGNED_CONTEXT ( ( #75, #524, #206 ) ) REPRESENTATION_CONTEXT ( 'NONE', 'WORKASPACE' ) );
#1009 = CARTESIAN_POINT ( 'NONE',  ( 2.326828918379969947E-17, 5.330000000000000071, 0.1900000000000000022 ) ) ;
#1010 = DIRECTION ( 'NONE',  ( -1.000000000000000000, 0.000000000000000000, 2.356961244533704927E-16 ) ) ;
#1011 = PRODUCT_DEFINITION_SHAPE ( 'NONE', 'NONE',  #884 ) ;
#1012 = EDGE_CURVE ( 'NONE', #251, #798, #950, .T. ) ;
#1013 = EDGE_CURVE ( 'NONE', #43, #211, #278, .T. ) ;
#1014 = NEXT_ASSEMBLY_USAGE_OCCURRENCE ( 'NAUO1', ' ', ' ', #884, #348, $ ) ;
#1015 = NEXT_ASSEMBLY_USAGE_OCCURRENCE ( 'NAUO2', ' ', ' ', #348, #112, $ ) ;
ENDSEC;
END-ISO-10303-21;
