%TF.GenerationSoftware,KiCad,Pcbnew,10.0.3*%
%TF.CreationDate,2026-05-26T17:57:55+02:00*%
%TF.ProjectId,PEP_Schaltplan_Layout_V1.0,5045505f-5363-4686-916c-74706c616e5f,rev?*%
%TF.SameCoordinates,Original*%
%TF.FileFunction,Soldermask,Bot*%
%TF.FilePolarity,Negative*%
%FSLAX46Y46*%
G04 Gerber Fmt 4.6, Leading zero omitted, Abs format (unit mm)*
G04 Created by KiCad (PCBNEW 10.0.3) date 2026-05-26 17:57:55*
%MOMM*%
%LPD*%
G01*
G04 APERTURE LIST*
G04 Aperture macros list*
%AMRoundRect*
0 Rectangle with rounded corners*
0 $1 Rounding radius*
0 $2 $3 $4 $5 $6 $7 $8 $9 X,Y pos of 4 corners*
0 Add a 4 corners polygon primitive as box body*
4,1,4,$2,$3,$4,$5,$6,$7,$8,$9,$2,$3,0*
0 Add four circle primitives for the rounded corners*
1,1,$1+$1,$2,$3*
1,1,$1+$1,$4,$5*
1,1,$1+$1,$6,$7*
1,1,$1+$1,$8,$9*
0 Add four rect primitives between the rounded corners*
20,1,$1+$1,$2,$3,$4,$5,0*
20,1,$1+$1,$4,$5,$6,$7,0*
20,1,$1+$1,$6,$7,$8,$9,0*
20,1,$1+$1,$8,$9,$2,$3,0*%
G04 Aperture macros list end*
%ADD10RoundRect,0.102000X0.749300X-0.749300X0.749300X0.749300X-0.749300X0.749300X-0.749300X-0.749300X0*%
%ADD11C,1.702600*%
%ADD12R,1.700000X1.700000*%
%ADD13C,1.700000*%
%ADD14R,1.800000X1.800000*%
%ADD15C,1.800000*%
%ADD16R,1.050000X1.500000*%
%ADD17O,1.050000X1.500000*%
%ADD18RoundRect,0.250000X-0.550000X0.550000X-0.550000X-0.550000X0.550000X-0.550000X0.550000X0.550000X0*%
%ADD19C,1.600000*%
%ADD20RoundRect,0.249999X0.850001X0.850001X-0.850001X0.850001X-0.850001X-0.850001X0.850001X-0.850001X0*%
%ADD21C,2.200000*%
%ADD22RoundRect,0.250000X-0.550000X-0.550000X0.550000X-0.550000X0.550000X0.550000X-0.550000X0.550000X0*%
%ADD23C,2.340000*%
%ADD24RoundRect,0.249999X-0.850001X-0.850001X0.850001X-0.850001X0.850001X0.850001X-0.850001X0.850001X0*%
%ADD25R,2.000000X1.905000*%
%ADD26O,2.000000X1.905000*%
%ADD27C,1.440000*%
%ADD28RoundRect,0.249999X0.850001X-0.850001X0.850001X0.850001X-0.850001X0.850001X-0.850001X-0.850001X0*%
%ADD29RoundRect,0.249999X-0.850001X0.850001X-0.850001X-0.850001X0.850001X-0.850001X0.850001X0.850001X0*%
G04 APERTURE END LIST*
D10*
%TO.C,U1*%
X89163600Y-58030200D03*
D11*
X91703600Y-58030200D03*
X94243600Y-58030200D03*
X96783600Y-58030200D03*
X96783600Y-50410200D03*
X94243600Y-50410200D03*
X91703600Y-50410200D03*
X89163600Y-50410200D03*
%TD*%
D12*
%TO.C,J11*%
X130588600Y-114860200D03*
D13*
X130588600Y-112320200D03*
%TD*%
D14*
%TO.C,D8*%
X103683600Y-89910200D03*
D15*
X103683600Y-87370200D03*
%TD*%
D12*
%TO.C,J8*%
X95951100Y-150400200D03*
%TD*%
D16*
%TO.C,Q1*%
X89253600Y-62550200D03*
D17*
X90523600Y-62550200D03*
X91793600Y-62550200D03*
%TD*%
D18*
%TO.C,SW11*%
X117021100Y-156730200D03*
D19*
X114481100Y-156730200D03*
X111941100Y-156730200D03*
X109401100Y-156730200D03*
X109401100Y-164350200D03*
X111941100Y-164350200D03*
X114481100Y-164350200D03*
X117021100Y-164350200D03*
%TD*%
D12*
%TO.C,J9*%
X110811100Y-145180200D03*
%TD*%
D16*
%TO.C,Q2*%
X95253600Y-62560200D03*
D17*
X96523600Y-62560200D03*
X97793600Y-62560200D03*
%TD*%
D14*
%TO.C,D9*%
X71593600Y-68600200D03*
D15*
X71593600Y-71140200D03*
%TD*%
D20*
%TO.C,D11*%
X93943600Y-129550200D03*
D21*
X83783600Y-129550200D03*
%TD*%
D12*
%TO.C,J10*%
X118978600Y-107535200D03*
%TD*%
D22*
%TO.C,SW6*%
X87433600Y-111120200D03*
D19*
X87433600Y-113660200D03*
X87433600Y-116200200D03*
X87433600Y-118740200D03*
X95053600Y-118740200D03*
X95053600Y-116200200D03*
X95053600Y-113660200D03*
X95053600Y-111120200D03*
%TD*%
D22*
%TO.C,SW16*%
X98538600Y-111262700D03*
D19*
X98538600Y-113802700D03*
X98538600Y-116342700D03*
X98538600Y-118882700D03*
X106158600Y-118882700D03*
X106158600Y-116342700D03*
X106158600Y-113802700D03*
X106158600Y-111262700D03*
%TD*%
D14*
%TO.C,D3*%
X73903600Y-58670200D03*
D15*
X73903600Y-56130200D03*
%TD*%
D12*
%TO.C,J5*%
X50513600Y-139490200D03*
%TD*%
D18*
%TO.C,SW8*%
X74273600Y-156640200D03*
D19*
X71733600Y-156640200D03*
X69193600Y-156640200D03*
X66653600Y-156640200D03*
X66653600Y-164260200D03*
X69193600Y-164260200D03*
X71733600Y-164260200D03*
X74273600Y-164260200D03*
%TD*%
D23*
%TO.C,RV1*%
X52333600Y-72800200D03*
X52333600Y-77800200D03*
X52333600Y-82800200D03*
X59833600Y-72800200D03*
X59833600Y-77800200D03*
X59833600Y-82800200D03*
%TD*%
D22*
%TO.C,SW3*%
X69953600Y-96210200D03*
D19*
X69953600Y-98750200D03*
X69953600Y-101290200D03*
X69953600Y-103830200D03*
X77573600Y-103830200D03*
X77573600Y-101290200D03*
X77573600Y-98750200D03*
X77573600Y-96210200D03*
%TD*%
D18*
%TO.C,SW12*%
X103391100Y-156615200D03*
D19*
X100851100Y-156615200D03*
X98311100Y-156615200D03*
X95771100Y-156615200D03*
X95771100Y-164235200D03*
X98311100Y-164235200D03*
X100851100Y-164235200D03*
X103391100Y-164235200D03*
%TD*%
D24*
%TO.C,D10*%
X83913600Y-125460200D03*
D21*
X94073600Y-125460200D03*
%TD*%
D12*
%TO.C,J6*%
X72168600Y-139737700D03*
%TD*%
D25*
%TO.C,U3*%
X79903600Y-70750200D03*
D26*
X79903600Y-73290200D03*
X79903600Y-75830200D03*
%TD*%
D25*
%TO.C,U2*%
X96843600Y-70120200D03*
D26*
X96843600Y-72660200D03*
X96843600Y-75200200D03*
%TD*%
D27*
%TO.C,RV4*%
X115273600Y-104520200D03*
X112733600Y-104520200D03*
X110193600Y-104520200D03*
%TD*%
D12*
%TO.C,J4*%
X64083600Y-133280200D03*
%TD*%
D27*
%TO.C,RV3*%
X116511100Y-146190200D03*
X116511100Y-148730200D03*
X116511100Y-151270200D03*
%TD*%
D28*
%TO.C,D6*%
X103693600Y-78650200D03*
D21*
X103693600Y-68490200D03*
%TD*%
D24*
%TO.C,D12*%
X95371100Y-139150200D03*
D21*
X105531100Y-139150200D03*
%TD*%
D28*
%TO.C,D5*%
X86313600Y-78800200D03*
D21*
X86313600Y-68640200D03*
%TD*%
D22*
%TO.C,SW15*%
X98558600Y-96252700D03*
D19*
X98558600Y-98792700D03*
X98558600Y-101332700D03*
X98558600Y-103872700D03*
X106178600Y-103872700D03*
X106178600Y-101332700D03*
X106178600Y-98792700D03*
X106178600Y-96252700D03*
%TD*%
D18*
%TO.C,SW9*%
X88871100Y-173945200D03*
D19*
X86331100Y-173945200D03*
X83791100Y-173945200D03*
X81251100Y-173945200D03*
X81251100Y-181565200D03*
X83791100Y-181565200D03*
X86331100Y-181565200D03*
X88871100Y-181565200D03*
%TD*%
D22*
%TO.C,SW2*%
X58433600Y-111050200D03*
D19*
X58433600Y-113590200D03*
X58433600Y-116130200D03*
X58433600Y-118670200D03*
X66053600Y-118670200D03*
X66053600Y-116130200D03*
X66053600Y-113590200D03*
X66053600Y-111050200D03*
%TD*%
D27*
%TO.C,RV2*%
X51233600Y-143000200D03*
X51233600Y-145540200D03*
X51233600Y-148080200D03*
%TD*%
D12*
%TO.C,J2*%
X108003600Y-78660200D03*
%TD*%
%TO.C,J1*%
X51853600Y-53065200D03*
D13*
X51853600Y-55605200D03*
%TD*%
D12*
%TO.C,J7*%
X99573600Y-150385200D03*
%TD*%
D29*
%TO.C,D7*%
X75533600Y-68590200D03*
D21*
X75533600Y-78750200D03*
%TD*%
D18*
%TO.C,SW7*%
X88801100Y-156715200D03*
D19*
X86261100Y-156715200D03*
X83721100Y-156715200D03*
X81181100Y-156715200D03*
X81181100Y-164335200D03*
X83721100Y-164335200D03*
X86261100Y-164335200D03*
X88801100Y-164335200D03*
%TD*%
D18*
%TO.C,SW10*%
X74191100Y-173915200D03*
D19*
X71651100Y-173915200D03*
X69111100Y-173915200D03*
X66571100Y-173915200D03*
X66571100Y-181535200D03*
X69111100Y-181535200D03*
X71651100Y-181535200D03*
X74191100Y-181535200D03*
%TD*%
D18*
%TO.C,SW14*%
X103401100Y-173995200D03*
D19*
X100861100Y-173995200D03*
X98321100Y-173995200D03*
X95781100Y-173995200D03*
X95781100Y-181615200D03*
X98321100Y-181615200D03*
X100861100Y-181615200D03*
X103401100Y-181615200D03*
%TD*%
D12*
%TO.C,J12*%
X60143600Y-148790200D03*
%TD*%
D22*
%TO.C,SW4*%
X69563600Y-111100200D03*
D19*
X69563600Y-113640200D03*
X69563600Y-116180200D03*
X69563600Y-118720200D03*
X77183600Y-118720200D03*
X77183600Y-116180200D03*
X77183600Y-113640200D03*
X77183600Y-111100200D03*
%TD*%
D12*
%TO.C,J3*%
X75853600Y-83920200D03*
%TD*%
D22*
%TO.C,SW5*%
X87463600Y-96250200D03*
D19*
X87463600Y-98790200D03*
X87463600Y-101330200D03*
X87463600Y-103870200D03*
X95083600Y-103870200D03*
X95083600Y-101330200D03*
X95083600Y-98790200D03*
X95083600Y-96250200D03*
%TD*%
D24*
%TO.C,D2*%
X59473600Y-58660200D03*
D21*
X69633600Y-58660200D03*
%TD*%
D22*
%TO.C,SW1*%
X58383600Y-96180200D03*
D19*
X58383600Y-98720200D03*
X58383600Y-101260200D03*
X58383600Y-103800200D03*
X66003600Y-103800200D03*
X66003600Y-101260200D03*
X66003600Y-98720200D03*
X66003600Y-96180200D03*
%TD*%
D20*
%TO.C,D1*%
X69623600Y-50140200D03*
D21*
X59463600Y-50140200D03*
%TD*%
D18*
%TO.C,SW13*%
X117053600Y-174035200D03*
D19*
X114513600Y-174035200D03*
X111973600Y-174035200D03*
X109433600Y-174035200D03*
X109433600Y-181655200D03*
X111973600Y-181655200D03*
X114513600Y-181655200D03*
X117053600Y-181655200D03*
%TD*%
D27*
%TO.C,RV5*%
X123443600Y-122202700D03*
X120903600Y-122202700D03*
X118363600Y-122202700D03*
%TD*%
D29*
%TO.C,D4*%
X92003600Y-68450200D03*
D21*
X92003600Y-78610200D03*
%TD*%
M02*
