%TF.GenerationSoftware,KiCad,Pcbnew,10.0.3*%
%TF.CreationDate,2026-05-26T17:57:55+02:00*%
%TF.ProjectId,PEP_Schaltplan_Layout_V1.0,5045505f-5363-4686-916c-74706c616e5f,rev?*%
%TF.SameCoordinates,Original*%
%TF.FileFunction,Soldermask,Top*%
%TF.FilePolarity,Negative*%
%FSLAX46Y46*%
G04 Gerber Fmt 4.6, Leading zero omitted, Abs format (unit mm)*
G04 Created by KiCad (PCBNEW 10.0.3) date 2026-05-26 17:57:55*
%MOMM*%
%LPD*%
G01*
G04 APERTURE LIST*
G04 Aperture macros list*
%AMRoundRect*
0 Rectangle with rounded corners*
0 $1 Rounding radius*
0 $2 $3 $4 $5 $6 $7 $8 $9 X,Y pos of 4 corners*
0 Add a 4 corners polygon primitive as box body*
4,1,4,$2,$3,$4,$5,$6,$7,$8,$9,$2,$3,0*
0 Add four circle primitives for the rounded corners*
1,1,$1+$1,$2,$3*
1,1,$1+$1,$4,$5*
1,1,$1+$1,$6,$7*
1,1,$1+$1,$8,$9*
0 Add four rect primitives between the rounded corners*
20,1,$1+$1,$2,$3,$4,$5,0*
20,1,$1+$1,$4,$5,$6,$7,0*
20,1,$1+$1,$6,$7,$8,$9,0*
20,1,$1+$1,$8,$9,$2,$3,0*%
G04 Aperture macros list end*
%ADD10RoundRect,0.102000X0.749300X-0.749300X0.749300X0.749300X-0.749300X0.749300X-0.749300X-0.749300X0*%
%ADD11C,1.702600*%
%ADD12RoundRect,0.250000X0.325000X0.650000X-0.325000X0.650000X-0.325000X-0.650000X0.325000X-0.650000X0*%
%ADD13RoundRect,0.250000X-0.325000X-0.650000X0.325000X-0.650000X0.325000X0.650000X-0.325000X0.650000X0*%
%ADD14RoundRect,0.250000X-0.625000X0.312500X-0.625000X-0.312500X0.625000X-0.312500X0.625000X0.312500X0*%
%ADD15RoundRect,0.250000X0.625000X-0.312500X0.625000X0.312500X-0.625000X0.312500X-0.625000X-0.312500X0*%
%ADD16RoundRect,0.250000X0.650000X-0.325000X0.650000X0.325000X-0.650000X0.325000X-0.650000X-0.325000X0*%
%ADD17RoundRect,0.250000X0.312500X0.625000X-0.312500X0.625000X-0.312500X-0.625000X0.312500X-0.625000X0*%
%ADD18RoundRect,0.250000X-0.650000X0.325000X-0.650000X-0.325000X0.650000X-0.325000X0.650000X0.325000X0*%
%ADD19R,1.700000X1.700000*%
%ADD20C,1.700000*%
%ADD21RoundRect,0.250000X-0.312500X-0.625000X0.312500X-0.625000X0.312500X0.625000X-0.312500X0.625000X0*%
%ADD22RoundRect,0.150000X-0.725000X-0.150000X0.725000X-0.150000X0.725000X0.150000X-0.725000X0.150000X0*%
%ADD23R,1.800000X1.800000*%
%ADD24C,1.800000*%
%ADD25R,1.050000X1.500000*%
%ADD26O,1.050000X1.500000*%
%ADD27RoundRect,0.250000X-0.550000X0.550000X-0.550000X-0.550000X0.550000X-0.550000X0.550000X0.550000X0*%
%ADD28C,1.600000*%
%ADD29RoundRect,0.249999X0.850001X0.850001X-0.850001X0.850001X-0.850001X-0.850001X0.850001X-0.850001X0*%
%ADD30C,2.200000*%
%ADD31RoundRect,0.250000X-0.550000X-0.550000X0.550000X-0.550000X0.550000X0.550000X-0.550000X0.550000X0*%
%ADD32C,2.340000*%
%ADD33RoundRect,0.249999X-0.850001X-0.850001X0.850001X-0.850001X0.850001X0.850001X-0.850001X0.850001X0*%
%ADD34R,2.000000X1.905000*%
%ADD35O,2.000000X1.905000*%
%ADD36C,1.440000*%
%ADD37RoundRect,0.249999X0.850001X-0.850001X0.850001X0.850001X-0.850001X0.850001X-0.850001X-0.850001X0*%
%ADD38RoundRect,0.249999X-0.850001X0.850001X-0.850001X-0.850001X0.850001X-0.850001X0.850001X0.850001X0*%
%ADD39RoundRect,0.150000X-0.150000X0.725000X-0.150000X-0.725000X0.150000X-0.725000X0.150000X0.725000X0*%
%ADD40RoundRect,0.150000X0.150000X-0.725000X0.150000X0.725000X-0.150000X0.725000X-0.150000X-0.725000X0*%
G04 APERTURE END LIST*
D10*
%TO.C,U1*%
X89163600Y-58030200D03*
D11*
X91703600Y-58030200D03*
X94243600Y-58030200D03*
X96783600Y-58030200D03*
X96783600Y-50410200D03*
X94243600Y-50410200D03*
X91703600Y-50410200D03*
X89163600Y-50410200D03*
%TD*%
D12*
%TO.C,C18*%
X55443600Y-118697700D03*
X52493600Y-118697700D03*
%TD*%
D13*
%TO.C,C5*%
X96888600Y-79530200D03*
X99838600Y-79530200D03*
%TD*%
D14*
%TO.C,R7*%
X103633600Y-81525200D03*
X103633600Y-84450200D03*
%TD*%
D15*
%TO.C,R37*%
X65333600Y-140092700D03*
X65333600Y-137167700D03*
%TD*%
D16*
%TO.C,C35*%
X74233600Y-170685200D03*
X74233600Y-167735200D03*
%TD*%
%TO.C,C45*%
X100883600Y-170425200D03*
X100883600Y-167475200D03*
%TD*%
D17*
%TO.C,R12*%
X58691100Y-128250200D03*
X55766100Y-128250200D03*
%TD*%
D12*
%TO.C,C16*%
X55443600Y-113627700D03*
X52493600Y-113627700D03*
%TD*%
%TO.C,C14*%
X55423600Y-103797700D03*
X52473600Y-103797700D03*
%TD*%
D18*
%TO.C,C10*%
X53713600Y-134995200D03*
X53713600Y-137945200D03*
%TD*%
D14*
%TO.C,R1*%
X73983600Y-50107700D03*
X73983600Y-53032700D03*
%TD*%
D16*
%TO.C,C9*%
X62193600Y-140145200D03*
X62193600Y-137195200D03*
%TD*%
D19*
%TO.C,J11*%
X130588600Y-114860200D03*
D20*
X130588600Y-112320200D03*
%TD*%
D18*
%TO.C,C3*%
X85223600Y-50170200D03*
X85223600Y-53120200D03*
%TD*%
D15*
%TO.C,R28*%
X82718600Y-142650200D03*
X82718600Y-139725200D03*
%TD*%
D21*
%TO.C,R9*%
X58221100Y-66290200D03*
X61146100Y-66290200D03*
%TD*%
%TO.C,R5*%
X89118600Y-47260200D03*
X92043600Y-47260200D03*
%TD*%
D14*
%TO.C,R3*%
X78043600Y-55700200D03*
X78043600Y-58625200D03*
%TD*%
D17*
%TO.C,R15*%
X55356100Y-89000200D03*
X52431100Y-89000200D03*
%TD*%
D12*
%TO.C,C17*%
X55463600Y-116097700D03*
X52513600Y-116097700D03*
%TD*%
D16*
%TO.C,C47*%
X95813600Y-170355200D03*
X95813600Y-167405200D03*
%TD*%
D22*
%TO.C,U6*%
X74333600Y-145800200D03*
X74333600Y-147070200D03*
X74333600Y-148340200D03*
X74333600Y-149610200D03*
X79483600Y-149610200D03*
X79483600Y-148340200D03*
X79483600Y-147070200D03*
X79483600Y-145800200D03*
%TD*%
D23*
%TO.C,D8*%
X103683600Y-89910200D03*
D24*
X103683600Y-87370200D03*
%TD*%
D19*
%TO.C,J8*%
X95951100Y-150400200D03*
%TD*%
D17*
%TO.C,R6*%
X86766100Y-47220200D03*
X83841100Y-47220200D03*
%TD*%
D12*
%TO.C,C12*%
X55413600Y-98697700D03*
X52463600Y-98697700D03*
%TD*%
D25*
%TO.C,Q1*%
X89253600Y-62550200D03*
D26*
X90523600Y-62550200D03*
X91793600Y-62550200D03*
%TD*%
D27*
%TO.C,SW11*%
X117021100Y-156730200D03*
D28*
X114481100Y-156730200D03*
X111941100Y-156730200D03*
X109401100Y-156730200D03*
X109401100Y-164350200D03*
X111941100Y-164350200D03*
X114481100Y-164350200D03*
X117021100Y-164350200D03*
%TD*%
D12*
%TO.C,C13*%
X55433600Y-101287700D03*
X52483600Y-101287700D03*
%TD*%
D17*
%TO.C,R14*%
X69211100Y-128340200D03*
X66286100Y-128340200D03*
%TD*%
D19*
%TO.C,J9*%
X110811100Y-145180200D03*
%TD*%
D25*
%TO.C,Q2*%
X95253600Y-62560200D03*
D26*
X96523600Y-62560200D03*
X97793600Y-62560200D03*
%TD*%
D23*
%TO.C,D9*%
X71593600Y-68600200D03*
D24*
X71593600Y-71140200D03*
%TD*%
D21*
%TO.C,R4*%
X94548600Y-47300200D03*
X97473600Y-47300200D03*
%TD*%
D22*
%TO.C,U7*%
X118353600Y-111740200D03*
X118353600Y-113010200D03*
X118353600Y-114280200D03*
X118353600Y-115550200D03*
X123503600Y-115550200D03*
X123503600Y-114280200D03*
X123503600Y-113010200D03*
X123503600Y-111740200D03*
%TD*%
D16*
%TO.C,C42*%
X111893600Y-170460200D03*
X111893600Y-167510200D03*
%TD*%
D29*
%TO.C,D11*%
X93943600Y-129550200D03*
D30*
X83783600Y-129550200D03*
%TD*%
D15*
%TO.C,R35*%
X114973600Y-112365200D03*
X114973600Y-109440200D03*
%TD*%
D19*
%TO.C,J10*%
X118978600Y-107535200D03*
%TD*%
D16*
%TO.C,C31*%
X88766100Y-170560200D03*
X88766100Y-167610200D03*
%TD*%
D31*
%TO.C,SW6*%
X87433600Y-111120200D03*
D28*
X87433600Y-113660200D03*
X87433600Y-116200200D03*
X87433600Y-118740200D03*
X95053600Y-118740200D03*
X95053600Y-116200200D03*
X95053600Y-113660200D03*
X95053600Y-111120200D03*
%TD*%
D17*
%TO.C,R17*%
X74361100Y-124810200D03*
X71436100Y-124810200D03*
%TD*%
D13*
%TO.C,C30*%
X74343600Y-151987700D03*
X77293600Y-151987700D03*
%TD*%
D21*
%TO.C,R10*%
X52371100Y-66340200D03*
X55296100Y-66340200D03*
%TD*%
D31*
%TO.C,SW16*%
X98538600Y-111262700D03*
D28*
X98538600Y-113802700D03*
X98538600Y-116342700D03*
X98538600Y-118882700D03*
X106158600Y-118882700D03*
X106158600Y-116342700D03*
X106158600Y-113802700D03*
X106158600Y-111262700D03*
%TD*%
D18*
%TO.C,C40*%
X117013600Y-167390200D03*
X117013600Y-170340200D03*
%TD*%
D23*
%TO.C,D3*%
X73903600Y-58670200D03*
D24*
X73903600Y-56130200D03*
%TD*%
D19*
%TO.C,J5*%
X50513600Y-139490200D03*
%TD*%
D27*
%TO.C,SW8*%
X74273600Y-156640200D03*
D28*
X71733600Y-156640200D03*
X69193600Y-156640200D03*
X66653600Y-156640200D03*
X66653600Y-164260200D03*
X69193600Y-164260200D03*
X71733600Y-164260200D03*
X74273600Y-164260200D03*
%TD*%
D32*
%TO.C,RV1*%
X52333600Y-72800200D03*
X52333600Y-77800200D03*
X52333600Y-82800200D03*
X59833600Y-72800200D03*
X59833600Y-77800200D03*
X59833600Y-82800200D03*
%TD*%
D31*
%TO.C,SW3*%
X69953600Y-96210200D03*
D28*
X69953600Y-98750200D03*
X69953600Y-101290200D03*
X69953600Y-103830200D03*
X77573600Y-103830200D03*
X77573600Y-101290200D03*
X77573600Y-98750200D03*
X77573600Y-96210200D03*
%TD*%
D17*
%TO.C,R11*%
X53641100Y-128220200D03*
X50716100Y-128220200D03*
%TD*%
D18*
%TO.C,C2*%
X81483600Y-55650200D03*
X81483600Y-58600200D03*
%TD*%
D21*
%TO.C,R20*%
X76818600Y-128430200D03*
X79743600Y-128430200D03*
%TD*%
D15*
%TO.C,R22*%
X57353600Y-145912700D03*
X57353600Y-142987700D03*
%TD*%
D12*
%TO.C,C6*%
X82818600Y-80570200D03*
X79868600Y-80570200D03*
%TD*%
D16*
%TO.C,C37*%
X69113600Y-170635200D03*
X69113600Y-167685200D03*
%TD*%
D12*
%TO.C,C20*%
X83893600Y-98777700D03*
X80943600Y-98777700D03*
%TD*%
D27*
%TO.C,SW12*%
X103391100Y-156615200D03*
D28*
X100851100Y-156615200D03*
X98311100Y-156615200D03*
X95771100Y-156615200D03*
X95771100Y-164235200D03*
X98311100Y-164235200D03*
X100851100Y-164235200D03*
X103391100Y-164235200D03*
%TD*%
D33*
%TO.C,D10*%
X83913600Y-125460200D03*
D30*
X94073600Y-125460200D03*
%TD*%
D17*
%TO.C,R13*%
X63831100Y-128260200D03*
X60906100Y-128260200D03*
%TD*%
D19*
%TO.C,J6*%
X72168600Y-139737700D03*
%TD*%
D34*
%TO.C,U3*%
X79903600Y-70750200D03*
D35*
X79903600Y-73290200D03*
X79903600Y-75830200D03*
%TD*%
D16*
%TO.C,C33*%
X83773600Y-170565200D03*
X83773600Y-167615200D03*
%TD*%
D12*
%TO.C,C19*%
X83893600Y-96237700D03*
X80943600Y-96237700D03*
%TD*%
D34*
%TO.C,U2*%
X96843600Y-70120200D03*
D35*
X96843600Y-72660200D03*
X96843600Y-75200200D03*
%TD*%
D36*
%TO.C,RV4*%
X115273600Y-104520200D03*
X112733600Y-104520200D03*
X110193600Y-104520200D03*
%TD*%
D19*
%TO.C,J4*%
X64083600Y-133280200D03*
%TD*%
D36*
%TO.C,RV3*%
X116511100Y-146190200D03*
X116511100Y-148730200D03*
X116511100Y-151270200D03*
%TD*%
D12*
%TO.C,C21*%
X83893600Y-101307700D03*
X80943600Y-101307700D03*
%TD*%
D17*
%TO.C,R26*%
X71721100Y-143077700D03*
X68796100Y-143077700D03*
%TD*%
D18*
%TO.C,C1*%
X81563600Y-50155200D03*
X81563600Y-53105200D03*
%TD*%
D37*
%TO.C,D6*%
X103693600Y-78650200D03*
D30*
X103693600Y-68490200D03*
%TD*%
D12*
%TO.C,C29*%
X79463600Y-143677700D03*
X76513600Y-143677700D03*
%TD*%
D21*
%TO.C,R25*%
X68786100Y-145907700D03*
X71711100Y-145907700D03*
%TD*%
D33*
%TO.C,D12*%
X95371100Y-139150200D03*
D30*
X105531100Y-139150200D03*
%TD*%
D16*
%TO.C,C34*%
X81143600Y-170525200D03*
X81143600Y-167575200D03*
%TD*%
D14*
%TO.C,R8*%
X71573600Y-75787700D03*
X71573600Y-78712700D03*
%TD*%
D37*
%TO.C,D5*%
X86313600Y-78800200D03*
D30*
X86313600Y-68640200D03*
%TD*%
D31*
%TO.C,SW15*%
X98558600Y-96252700D03*
D28*
X98558600Y-98792700D03*
X98558600Y-101332700D03*
X98558600Y-103872700D03*
X106178600Y-103872700D03*
X106178600Y-101332700D03*
X106178600Y-98792700D03*
X106178600Y-96252700D03*
%TD*%
D15*
%TO.C,R34*%
X115003600Y-118192700D03*
X115003600Y-115267700D03*
%TD*%
D16*
%TO.C,C36*%
X71703600Y-170635200D03*
X71703600Y-167685200D03*
%TD*%
D13*
%TO.C,C48*%
X118038600Y-117902700D03*
X120988600Y-117902700D03*
%TD*%
D17*
%TO.C,R27*%
X79571100Y-139757700D03*
X76646100Y-139757700D03*
%TD*%
D12*
%TO.C,C15*%
X55453600Y-111097700D03*
X52503600Y-111097700D03*
%TD*%
D14*
%TO.C,R36*%
X126248600Y-112140200D03*
X126248600Y-115065200D03*
%TD*%
D13*
%TO.C,C7*%
X96898600Y-82030200D03*
X99848600Y-82030200D03*
%TD*%
D12*
%TO.C,C22*%
X83903600Y-103867700D03*
X80953600Y-103867700D03*
%TD*%
%TO.C,C24*%
X83513600Y-113657700D03*
X80563600Y-113657700D03*
%TD*%
D27*
%TO.C,SW9*%
X88871100Y-173945200D03*
D28*
X86331100Y-173945200D03*
X83791100Y-173945200D03*
X81251100Y-173945200D03*
X81251100Y-181565200D03*
X83791100Y-181565200D03*
X86331100Y-181565200D03*
X88871100Y-181565200D03*
%TD*%
D16*
%TO.C,C49*%
X123393600Y-109107700D03*
X123393600Y-106157700D03*
%TD*%
%TO.C,C41*%
X114413600Y-170430200D03*
X114413600Y-167480200D03*
%TD*%
D31*
%TO.C,SW2*%
X58433600Y-111050200D03*
D28*
X58433600Y-113590200D03*
X58433600Y-116130200D03*
X58433600Y-118670200D03*
X66053600Y-118670200D03*
X66053600Y-116130200D03*
X66053600Y-113590200D03*
X66053600Y-111050200D03*
%TD*%
D36*
%TO.C,RV2*%
X51233600Y-143000200D03*
X51233600Y-145540200D03*
X51233600Y-148080200D03*
%TD*%
D19*
%TO.C,J2*%
X108003600Y-78660200D03*
%TD*%
%TO.C,J1*%
X51853600Y-53065200D03*
D20*
X51853600Y-55605200D03*
%TD*%
D19*
%TO.C,J7*%
X99573600Y-150385200D03*
%TD*%
D12*
%TO.C,C39*%
X92433600Y-150195200D03*
X89483600Y-150195200D03*
%TD*%
D14*
%TO.C,R33*%
X110153600Y-109397700D03*
X110153600Y-112322700D03*
%TD*%
D12*
%TO.C,C8*%
X82848600Y-83900200D03*
X79898600Y-83900200D03*
%TD*%
D21*
%TO.C,R19*%
X76703600Y-124920200D03*
X79628600Y-124920200D03*
%TD*%
D38*
%TO.C,D7*%
X75533600Y-68590200D03*
D30*
X75533600Y-78750200D03*
%TD*%
D12*
%TO.C,C27*%
X100441100Y-145810200D03*
X97491100Y-145810200D03*
%TD*%
D39*
%TO.C,U4*%
X59898600Y-134985200D03*
X58628600Y-134985200D03*
X57358600Y-134985200D03*
X56088600Y-134985200D03*
X56088600Y-140135200D03*
X57358600Y-140135200D03*
X58628600Y-140135200D03*
X59898600Y-140135200D03*
%TD*%
D17*
%TO.C,R30*%
X98846100Y-134840200D03*
X95921100Y-134840200D03*
%TD*%
%TO.C,R18*%
X74418600Y-128330200D03*
X71493600Y-128330200D03*
%TD*%
D12*
%TO.C,C23*%
X83483600Y-111087700D03*
X80533600Y-111087700D03*
%TD*%
D17*
%TO.C,R16*%
X61838600Y-89020200D03*
X58913600Y-89020200D03*
%TD*%
D27*
%TO.C,SW7*%
X88801100Y-156715200D03*
D28*
X86261100Y-156715200D03*
X83721100Y-156715200D03*
X81181100Y-156715200D03*
X81181100Y-164335200D03*
X83721100Y-164335200D03*
X86261100Y-164335200D03*
X88801100Y-164335200D03*
%TD*%
D27*
%TO.C,SW10*%
X74191100Y-173915200D03*
D28*
X71651100Y-173915200D03*
X69111100Y-173915200D03*
X66571100Y-173915200D03*
X66571100Y-181535200D03*
X69111100Y-181535200D03*
X71651100Y-181535200D03*
X74191100Y-181535200D03*
%TD*%
D27*
%TO.C,SW14*%
X103401100Y-173995200D03*
D28*
X100861100Y-173995200D03*
X98321100Y-173995200D03*
X95781100Y-173995200D03*
X95781100Y-181615200D03*
X98321100Y-181615200D03*
X100861100Y-181615200D03*
X103401100Y-181615200D03*
%TD*%
D16*
%TO.C,C46*%
X98363600Y-170375200D03*
X98363600Y-167425200D03*
%TD*%
%TO.C,C28*%
X111001100Y-151105200D03*
X111001100Y-148155200D03*
%TD*%
%TO.C,C43*%
X109403600Y-170460200D03*
X109403600Y-167510200D03*
%TD*%
D17*
%TO.C,R24*%
X71691100Y-149097700D03*
X68766100Y-149097700D03*
%TD*%
D16*
%TO.C,C44*%
X103423600Y-170395200D03*
X103423600Y-167445200D03*
%TD*%
D19*
%TO.C,J12*%
X60143600Y-148790200D03*
%TD*%
D14*
%TO.C,R21*%
X60123600Y-143007700D03*
X60123600Y-145932700D03*
%TD*%
D12*
%TO.C,C11*%
X55373600Y-96197700D03*
X52423600Y-96197700D03*
%TD*%
D18*
%TO.C,C4*%
X85243600Y-55615200D03*
X85243600Y-58565200D03*
%TD*%
D14*
%TO.C,R32*%
X110063600Y-115257700D03*
X110063600Y-118182700D03*
%TD*%
D12*
%TO.C,C25*%
X83483600Y-116177700D03*
X80533600Y-116177700D03*
%TD*%
D31*
%TO.C,SW4*%
X69563600Y-111100200D03*
D28*
X69563600Y-113640200D03*
X69563600Y-116180200D03*
X69563600Y-118720200D03*
X77183600Y-118720200D03*
X77183600Y-116180200D03*
X77183600Y-113640200D03*
X77183600Y-111100200D03*
%TD*%
D14*
%TO.C,R2*%
X78033600Y-50057700D03*
X78033600Y-52982700D03*
%TD*%
D19*
%TO.C,J3*%
X75853600Y-83920200D03*
%TD*%
D31*
%TO.C,SW5*%
X87463600Y-96250200D03*
D28*
X87463600Y-98790200D03*
X87463600Y-101330200D03*
X87463600Y-103870200D03*
X95083600Y-103870200D03*
X95083600Y-101330200D03*
X95083600Y-98790200D03*
X95083600Y-96250200D03*
%TD*%
D16*
%TO.C,C38*%
X66663600Y-170595200D03*
X66663600Y-167645200D03*
%TD*%
D33*
%TO.C,D2*%
X59473600Y-58660200D03*
D30*
X69633600Y-58660200D03*
%TD*%
D15*
%TO.C,R23*%
X66008600Y-149100200D03*
X66008600Y-146175200D03*
%TD*%
D31*
%TO.C,SW1*%
X58383600Y-96180200D03*
D28*
X58383600Y-98720200D03*
X58383600Y-101260200D03*
X58383600Y-103800200D03*
X66003600Y-103800200D03*
X66003600Y-101260200D03*
X66003600Y-98720200D03*
X66003600Y-96180200D03*
%TD*%
D29*
%TO.C,D1*%
X69623600Y-50140200D03*
D30*
X59463600Y-50140200D03*
%TD*%
D16*
%TO.C,C32*%
X86223600Y-170565200D03*
X86223600Y-167615200D03*
%TD*%
D17*
%TO.C,R29*%
X92371100Y-146390200D03*
X89446100Y-146390200D03*
%TD*%
D27*
%TO.C,SW13*%
X117053600Y-174035200D03*
D28*
X114513600Y-174035200D03*
X111973600Y-174035200D03*
X109433600Y-174035200D03*
X109433600Y-181655200D03*
X111973600Y-181655200D03*
X114513600Y-181655200D03*
X117053600Y-181655200D03*
%TD*%
D36*
%TO.C,RV5*%
X123443600Y-122202700D03*
X120903600Y-122202700D03*
X118363600Y-122202700D03*
%TD*%
D40*
%TO.C,U5*%
X103773600Y-151070200D03*
X105043600Y-151070200D03*
X106313600Y-151070200D03*
X107583600Y-151070200D03*
X107583600Y-145920200D03*
X106313600Y-145920200D03*
X105043600Y-145920200D03*
X103773600Y-145920200D03*
%TD*%
D38*
%TO.C,D4*%
X92003600Y-68450200D03*
D30*
X92003600Y-78610200D03*
%TD*%
D12*
%TO.C,C26*%
X83483600Y-118717700D03*
X80533600Y-118717700D03*
%TD*%
D17*
%TO.C,R31*%
X104846100Y-134780200D03*
X101921100Y-134780200D03*
%TD*%
M02*
