M48
; DRILL file KiCad 10.0.3 date 2026-05-26T17:58:18
; FORMAT={-:-/ absolute / metric / decimal}
; #@! TF.CreationDate,2026-05-26T17:58:18+02:00
; #@! TF.GenerationSoftware,Kicad,Pcbnew,10.0.3
; #@! TF.FileFunction,Plated,1,2,PTH
FMAT,2
METRIC
; #@! TA.AperFunction,Plated,PTH,ViaDrill
T1C0.400
; #@! TA.AperFunction,Plated,PTH,ComponentDrill
T2C0.750
; #@! TA.AperFunction,Plated,PTH,ComponentDrill
T3C0.800
; #@! TA.AperFunction,Plated,PTH,ComponentDrill
T4C0.900
; #@! TA.AperFunction,Plated,PTH,ComponentDrill
T5C0.991
; #@! TA.AperFunction,Plated,PTH,ComponentDrill
T6C1.000
; #@! TA.AperFunction,Plated,PTH,ComponentDrill
T7C1.100
; #@! TA.AperFunction,Plated,PTH,ComponentDrill
T8C1.300
%
G90
G05
T1
X49.394Y-128.18
X50.744Y-98.67
X50.744Y-103.69
X50.764Y-96.24
X50.784Y-101.35
X50.974Y-118.72
X50.994Y-111.03
X51.044Y-116.08
X51.054Y-113.6
X53.714Y-136.837
X55.271Y-140.158
X62.194Y-135.95
X62.434Y-141.62
X62.574Y-66.35
X75.894Y-147.1
X76.524Y-141.86
X77.753Y-125.055
X78.684Y-152.0
X79.484Y-150.472
X80.594Y-143.891
X81.564Y-54.278
X82.524Y-47.21
X84.164Y-80.92
X84.214Y-83.9
X85.224Y-54.27
X88.303Y-146.473
X95.924Y-146.87
X98.855Y-145.579
X101.174Y-79.58
X101.214Y-82.03
X107.304Y-148.93
X107.613Y-147.319
X113.314Y-146.7
X116.504Y-114.34
X119.888Y-117.671
X120.124Y-114.26
X121.334Y-115.18
X122.161Y-113.262
X123.394Y-105.011
T2
X89.254Y-62.55
X90.524Y-62.55
X91.794Y-62.55
X95.254Y-62.56
X96.524Y-62.56
X97.794Y-62.56
T3
X51.234Y-143.0
X51.234Y-145.54
X51.234Y-148.08
X58.384Y-96.18
X58.384Y-98.72
X58.384Y-101.26
X58.384Y-103.8
X58.434Y-111.05
X58.434Y-113.59
X58.434Y-116.13
X58.434Y-118.67
X66.004Y-96.18
X66.004Y-98.72
X66.004Y-101.26
X66.004Y-103.8
X66.054Y-111.05
X66.054Y-113.59
X66.054Y-116.13
X66.054Y-118.67
X66.571Y-173.915
X66.571Y-181.535
X66.654Y-156.64
X66.654Y-164.26
X69.111Y-173.915
X69.111Y-181.535
X69.194Y-156.64
X69.194Y-164.26
X69.564Y-111.1
X69.564Y-113.64
X69.564Y-116.18
X69.564Y-118.72
X69.954Y-96.21
X69.954Y-98.75
X69.954Y-101.29
X69.954Y-103.83
X71.651Y-173.915
X71.651Y-181.535
X71.734Y-156.64
X71.734Y-164.26
X74.191Y-173.915
X74.191Y-181.535
X74.274Y-156.64
X74.274Y-164.26
X77.184Y-111.1
X77.184Y-113.64
X77.184Y-116.18
X77.184Y-118.72
X77.574Y-96.21
X77.574Y-98.75
X77.574Y-101.29
X77.574Y-103.83
X81.181Y-156.715
X81.181Y-164.335
X81.251Y-173.945
X81.251Y-181.565
X83.721Y-156.715
X83.721Y-164.335
X83.791Y-173.945
X83.791Y-181.565
X86.261Y-156.715
X86.261Y-164.335
X86.331Y-173.945
X86.331Y-181.565
X87.434Y-111.12
X87.434Y-113.66
X87.434Y-116.2
X87.434Y-118.74
X87.464Y-96.25
X87.464Y-98.79
X87.464Y-101.33
X87.464Y-103.87
X88.801Y-156.715
X88.801Y-164.335
X88.871Y-173.945
X88.871Y-181.565
X95.054Y-111.12
X95.054Y-113.66
X95.054Y-116.2
X95.054Y-118.74
X95.084Y-96.25
X95.084Y-98.79
X95.084Y-101.33
X95.084Y-103.87
X95.771Y-156.615
X95.771Y-164.235
X95.781Y-173.995
X95.781Y-181.615
X98.311Y-156.615
X98.311Y-164.235
X98.321Y-173.995
X98.321Y-181.615
X98.539Y-111.263
X98.539Y-113.803
X98.539Y-116.343
X98.539Y-118.883
X98.559Y-96.253
X98.559Y-98.793
X98.559Y-101.333
X98.559Y-103.873
X100.851Y-156.615
X100.851Y-164.235
X100.861Y-173.995
X100.861Y-181.615
X103.391Y-156.615
X103.391Y-164.235
X103.401Y-173.995
X103.401Y-181.615
X106.159Y-111.263
X106.159Y-113.803
X106.159Y-116.343
X106.159Y-118.883
X106.179Y-96.253
X106.179Y-98.793
X106.179Y-101.333
X106.179Y-103.873
X109.401Y-156.73
X109.401Y-164.35
X109.434Y-174.035
X109.434Y-181.655
X110.194Y-104.52
X111.941Y-156.73
X111.941Y-164.35
X111.974Y-174.035
X111.974Y-181.655
X112.734Y-104.52
X114.481Y-156.73
X114.481Y-164.35
X114.514Y-174.035
X114.514Y-181.655
X115.274Y-104.52
X116.511Y-146.19
X116.511Y-148.73
X116.511Y-151.27
X117.021Y-156.73
X117.021Y-164.35
X117.054Y-174.035
X117.054Y-181.655
X118.364Y-122.203
X120.904Y-122.203
X123.444Y-122.203
T4
X71.594Y-68.6
X71.594Y-71.14
X73.904Y-56.13
X73.904Y-58.67
X103.684Y-87.37
X103.684Y-89.91
T5
X89.164Y-50.41
X89.164Y-58.03
X91.704Y-50.41
X91.704Y-58.03
X94.244Y-50.41
X94.244Y-58.03
X96.784Y-50.41
X96.784Y-58.03
T6
X50.514Y-139.49
X51.854Y-53.065
X51.854Y-55.605
X60.144Y-148.79
X64.084Y-133.28
X72.169Y-139.738
X75.854Y-83.92
X95.951Y-150.4
X99.574Y-150.385
X108.004Y-78.66
X110.811Y-145.18
X118.979Y-107.535
X130.589Y-112.32
X130.589Y-114.86
T7
X59.464Y-50.14
X59.474Y-58.66
X69.624Y-50.14
X69.634Y-58.66
X75.534Y-68.59
X75.534Y-78.75
X79.904Y-70.75
X79.904Y-73.29
X79.904Y-75.83
X83.784Y-129.55
X83.914Y-125.46
X86.314Y-68.64
X86.314Y-78.8
X92.004Y-68.45
X92.004Y-78.61
X93.944Y-129.55
X94.074Y-125.46
X95.371Y-139.15
X96.844Y-70.12
X96.844Y-72.66
X96.844Y-75.2
X103.694Y-68.49
X103.694Y-78.65
X105.531Y-139.15
T8
X52.334Y-72.8
X52.334Y-77.8
X52.334Y-82.8
X59.834Y-72.8
X59.834Y-77.8
X59.834Y-82.8
M30
